<?xml version="1.0" encoding="UTF-8"?>
<svg width="414px" height="414px" viewBox="0 0 414 414" version="1.1" xmlns="http://www.w3.org/2000/svg" xmlns:xlink="http://www.w3.org/1999/xlink">
    <title>Favicon_NuuEDScore</title>
    <defs>
        <polygon id="path-1" points="0.677612589 0.71427258 116.712839 0.71427258 116.712839 112.892285 0.677612589 112.892285"></polygon>
        <polygon id="path-3" points="0 0.71427258 116.035226 0.71427258 116.035226 112.967547 0 112.967547"></polygon>
    </defs>
    <g id="Optized-Elements" stroke="none" stroke-width="1" fill="none" fill-rule="evenodd">
        <g id="Group">
            <rect id="Rectangle" fill="#FFFFFF" x="0" y="0" width="414" height="414"></rect>
            <g id="Group-7" transform="translate(11.000000, 84.000000)">
                <g id="Group-15" transform="translate(0.778244, 0.739219)">
                    <g id="Group-3" transform="translate(64.756843, 0.037593)">
                        <mask id="mask-2" fill="white">
                            <use xlink:href="#path-1"></use>
                        </mask>
                        <g id="Clip-2"></g>
                        <path d="M0.677612589,48.758126 L64.9073646,112.892285 C79.5153035,101.238364 97.2104872,93.6445187 116.712839,91.4641077 L116.712839,0.713896648 C72.2866327,3.27024062 31.9265541,20.9390887 0.677612589,48.758126" id="Fill-1" fill="#0074B9" mask="url(#mask-2)"></path>
                    </g>
                    <path d="M49.4713664,64.7354262 C19.2766061,98.6445771 0.000150597311,143.07985 0.000150597311,191.875946 C0.000150597311,198.116432 5.04516043,203.153934 11.2949487,203.153934 L79.816724,203.153934 C86.0665123,203.153934 91.1115221,198.116432 91.1115221,191.875946 C91.1115221,167.966611 99.7708673,146.237687 113.701118,128.869585 L49.4713664,64.7354262 Z" id="Fill-4" fill="#46BC61"></path>
                    <g id="Group-8" transform="translate(204.059353, 0.037593)">
                        <mask id="mask-4" fill="white">
                            <use xlink:href="#path-3"></use>
                        </mask>
                        <g id="Clip-7"></g>
                        <path d="M-2.95288534e-11,0.713971834 L-2.95288534e-11,91.5393694 C19.5023514,93.7197805 37.1975351,101.313626 51.8054741,112.967547 L116.035226,48.8333878 C84.7862846,20.9391638 44.4262059,3.27031581 -2.95288534e-11,0.713971834" id="Fill-6" fill="#46BC61" mask="url(#mask-4)"></path>
                    </g>
                    <path d="M271.828141,128.869435 C285.758392,146.238288 294.417738,167.96646 294.417738,191.875795 C294.417738,198.117034 299.462748,203.153783 305.712536,203.153783 L374.234311,203.153783 C380.484099,203.153783 385.529109,198.117034 385.529109,191.875795 C385.529109,143.0797 366.252654,98.5692402 336.057893,64.7352758 L271.828141,128.869435 Z" id="Fill-9" fill="#0074B9"></path>
                    <path d="M252.016355,120.321208 C249.776028,118.053863 245.645781,118.199879 241.96438,120.563194 L160.827825,180.636175 C139.886942,201.566414 168.962475,233.406789 191.34587,211.097643 L251.722197,130.322685 C254.109178,126.628546 254.256682,122.588553 252.016355,120.321208 Z" id="Stroke-13" fill="#0074B9" transform="translate(203.608467, 168.702657) rotate(-23.000000) translate(-203.608467, -168.702657) "></path>
                </g>
            </g>
        </g>
    </g>
</svg>