<?xml version="1.0" encoding="UTF-8"?>
<svg width="196px" height="108px" viewBox="0 0 196 108" version="1.1" xmlns="http://www.w3.org/2000/svg" xmlns:xlink="http://www.w3.org/1999/xlink">
    <title>Logo Copy 2</title>
    <g id="Core-Screens" stroke="none" stroke-width="1" fill="none" fill-rule="evenodd">
        <g id="NuuEDScore_LandingPage" transform="translate(-66.000000, -4774.000000)" fill-rule="nonzero">
            <g id="Group-2" transform="translate(-1908.360000, 4716.180000)">
                <g id="Logo-Copy-2" transform="translate(1975.728758, 58.430491)">
                    <path d="M7.82691414,42.3220694 L7.82691414,8.56593608 L32.5095003,42.3220694 L37.5856106,42.3220694 L37.5856106,8.31335001e-13 L32.3191462,8.31335001e-13 L32.3191462,33.0581681 L7.9538169,8.31335001e-13 L2.56044974,8.31335001e-13 L2.56044974,42.3220694 L7.82691414,42.3220694 Z M57.5141984,43.0834859 C62.0826976,43.0834859 66.0801345,40.6723335 68.4278355,38.0073756 L68.4278355,42.3220694 L73.1866888,42.3220694 L73.1866888,11.6750536 L68.4278355,11.6750536 L68.4278355,34.2002929 C66.6511969,36.6748967 63.0979197,38.8322435 59.4177397,38.8322435 C55.2299488,38.8322435 52.5015395,37.2459591 52.5015395,31.8525919 L52.5015395,11.6750536 L47.7426861,11.6750536 L47.7426861,33.3119736 C47.7426861,39.910917 51.1056092,43.0834859 57.5141984,43.0834859 Z M92.9249225,43.0834859 C97.4934217,43.0834859 101.490859,40.6723335 103.83856,38.0073756 L103.83856,42.3220694 L108.597413,42.3220694 L108.597413,11.6750536 L103.83856,11.6750536 L103.83856,34.2002929 C102.061921,36.6748967 98.5086438,38.8322435 94.8284639,38.8322435 C90.6406729,38.8322435 87.9122636,37.2459591 87.9122636,31.8525919 L87.9122636,11.6750536 L83.1534102,11.6750536 L83.1534102,33.3119736 C83.1534102,39.910917 86.5163333,43.0834859 92.9249225,43.0834859 Z" id="Nuu" fill="#FFFFFF"></path>
                    <path d="M147.307609,42.3220694 L147.307609,35.7865774 L125.73414,35.7865774 L125.73414,23.984621 L146.863449,23.984621 L146.863449,17.449129 L125.73414,17.449129 L125.73414,6.53549197 L147.307609,6.53549197 L147.307609,7.2475359e-13 L118.310329,7.2475359e-13 L118.310329,42.3220694 L147.307609,42.3220694 Z M171.170182,42.3220694 C184.368069,42.3220694 193.251262,33.6292305 193.251262,21.129309 C193.251262,8.75629021 184.368069,7.2475359e-13 171.106731,7.2475359e-13 L155.370789,7.2475359e-13 L155.370789,42.3220694 L171.170182,42.3220694 Z M171.106731,35.7865774 L162.7946,35.7865774 L162.7946,6.53549197 L171.170182,6.53549197 C180.560986,6.53549197 185.637096,13.0075326 185.637096,21.129309 C185.637096,29.187634 180.30718,35.7865774 171.106731,35.7865774 Z" id="ED" fill="#1D6DB5"></path>
                    <path d="M16.0926839,105.938461 C27.4078523,105.938461 31.5567474,99.6522559 31.5567474,93.6174994 C31.5567474,77.9648498 6.72623899,83.3709858 6.72623899,73.9416788 C6.72623899,69.9813699 10.3722377,67.2783019 15.3383394,67.2783019 C19.9272688,67.2783019 24.3276121,68.786991 27.4707144,72.3072656 L30.6138167,68.4726808 C27.0935421,64.76382 22.1274404,62.5636484 15.7783737,62.5636484 C7.48058355,62.5636484 1.32010298,67.3411639 1.32010298,74.2559891 C1.32010298,89.2171562 26.1506114,83.1823997 26.1506114,93.9946717 C26.1506114,97.2634981 23.7618536,101.286669 16.2812701,101.286669 C10.3722377,101.286669 5.84617034,98.395015 3.14310233,95.2519126 L5.57065505e-12,99.2750836 C3.45741257,103.172531 8.86354858,105.938461 16.0926839,105.938461 Z M57.5696609,105.938461 C64.9873824,105.938461 70.0163461,102.418186 73.5366207,97.5778084 L69.1362774,95.1890506 C66.7475197,98.7093252 62.3471764,101.286669 57.5696609,101.286669 C48.391802,101.286669 41.4141149,94.1832578 41.4141149,84.2510545 C41.4141149,74.193127 48.391802,67.2154398 57.5696609,67.2154398 C62.3471764,67.2154398 66.7475197,69.7299217 69.1362774,73.3130584 L73.4737587,70.8614385 C70.1420702,66.083923 64.9873824,62.5636484 57.5696609,62.5636484 C45.5001479,62.5636484 36.0079789,71.3643349 36.0079789,84.2510545 C36.0079789,97.137774 45.5001479,105.938461 57.5696609,105.938461 Z M97.6636727,105.938461 C110.047496,105.938461 118.533872,96.6348777 118.533872,84.2510545 C118.533872,71.8672313 110.047496,62.5636484 97.6636727,62.5636484 C85.2798496,62.5636484 76.8563353,71.8672313 76.8563353,84.2510545 C76.8563353,96.6348777 85.2798496,105.938461 97.6636727,105.938461 Z M97.6636727,101.286669 C88.2343657,101.286669 82.2624713,93.9946717 82.2624713,84.2510545 C82.2624713,74.4445752 88.2343657,67.2154398 97.6636727,67.2154398 C107.030118,67.2154398 113.127736,74.4445752 113.127736,84.2510545 C113.127736,93.9946717 107.030118,101.286669 97.6636727,101.286669 Z M130.214239,105.184116 L130.214239,88.5256736 L138.637753,88.5256736 L149.261439,105.184116 L155.42192,105.184116 L144.106751,88.0856393 C149.827198,87.5827429 155.044747,83.4338479 155.044747,75.8904023 C155.044747,68.1583705 149.512887,63.2551309 141.843718,63.2551309 L124.996689,63.2551309 L124.996689,105.184116 L130.214239,105.184116 Z M141.215097,83.9367442 L130.214239,83.9367442 L130.214239,67.9069223 L141.215097,67.9069223 C146.181199,67.9069223 149.638611,71.1128867 149.638611,75.8904023 C149.638611,80.6050558 146.181199,83.9367442 141.215097,83.9367442 Z M189.104003,105.184116 L189.104003,100.532325 L166.850838,100.532325 L166.850838,86.0740538 L188.663969,86.0740538 L188.663969,81.4222624 L166.850838,81.4222624 L166.850838,67.9069223 L189.104003,67.9069223 L189.104003,63.2551309 L161.633288,63.2551309 L161.633288,105.184116 L189.104003,105.184116 Z" id="SCORE" fill="#FFFFFF"></path>
                </g>
            </g>
        </g>
    </g>
</svg>