<?xml version="1.0" encoding="UTF-8" standalone="no"?><!DOCTYPE svg PUBLIC "-//W3C//DTD SVG 1.1//EN" "http://www.w3.org/Graphics/SVG/1.1/DTD/svg11.dtd"><svg width="100%" height="100%" viewBox="0 0 607 729" version="1.1" xmlns="http://www.w3.org/2000/svg" xmlns:xlink="http://www.w3.org/1999/xlink" xml:space="preserve" xmlns:serif="http://www.serif.com/" style="fill-rule:evenodd;clip-rule:evenodd;stroke-linejoin:round;stroke-miterlimit:2;"><clipPath id="_clip1"><path d="M379.803,465.281c12.065,-20.164 29.805,-30.493 53.331,-30.769c23.525,-0.275 35.398,-12.257 35.784,-35.836c0.33,-23.469 10.55,-41.208 30.715,-53.218c20.22,-12.065 24.6,-28.289 13.085,-48.838c-11.46,-20.493 -11.46,-40.987 -0,-61.536c11.515,-20.494 7.162,-36.691 -13.085,-48.755c-20.165,-12.093 -30.412,-29.804 -30.715,-53.383c-0.386,-23.469 -12.259,-35.451 -35.784,-35.727c-23.526,-0.33 -41.266,-10.605 -53.331,-30.768c-12.066,-20.218 -28.292,-24.598 -48.787,-13.084c-20.495,11.459 -41.045,11.459 -61.54,0c-20.523,-11.486 -36.748,-7.134 -48.814,13.084c-12.038,20.191 -29.806,30.466 -53.304,30.768c-23.47,0.276 -35.398,12.258 -35.729,35.727c-0.385,23.579 -10.605,41.263 -30.77,53.383c-20.22,12.064 -24.655,28.234 -13.085,48.755c11.515,20.549 11.515,41.043 -0,61.536c-11.57,20.549 -7.162,36.801 13.085,48.838c20.165,12.01 30.412,29.749 30.77,53.218c0.331,23.551 12.259,35.561 35.729,35.836c23.525,0.276 41.266,10.605 53.331,30.769c12.066,20.218 28.292,24.598 48.787,13.028c20.495,-11.348 41.045,-11.348 61.54,0c20.495,11.542 36.748,7.19 48.787,-13.028Zm-79.502,-70.709c-71.127,-0 -128.756,-57.625 -128.756,-128.747c0,-71.067 57.629,-128.692 128.756,-128.692c71.072,-0 128.701,57.625 128.701,128.692c-0,71.122 -57.629,128.747 -128.701,128.747Z" clip-rule="nonzero"/></clipPath><g clip-path="url(#_clip1)"><rect x="65.859" y="31.484" width="468.75" height="468.75" style="fill:#fff;"/></g><path d="M379.802,465.281c12.066,-20.164 29.806,-30.493 53.332,-30.769c23.525,-0.275 35.398,-12.257 35.784,-35.836c0.33,-23.469 10.55,-41.208 30.715,-53.218c20.22,-12.065 24.6,-28.289 13.085,-48.838c-11.46,-20.493 -11.46,-40.987 -0,-61.536c11.515,-20.494 7.162,-36.69 -13.085,-48.755c-20.165,-12.093 -30.412,-29.804 -30.715,-53.383c-0.386,-23.469 -12.259,-35.451 -35.784,-35.727c-23.526,-0.33 -41.266,-10.604 -53.332,-30.768c-12.065,-20.218 -28.291,-24.598 -48.786,-13.084c-20.495,11.459 -41.045,11.459 -61.54,0c-20.523,-11.486 -36.748,-7.134 -48.814,13.084c-12.038,20.191 -29.806,30.465 -53.304,30.768c-23.47,0.276 -35.398,12.258 -35.729,35.727c-0.385,23.579 -10.605,41.263 -30.77,53.383c-20.22,12.065 -24.655,28.234 -13.085,48.755c11.515,20.549 11.515,41.043 -0,61.536c-11.57,20.549 -7.162,36.801 13.085,48.838c20.165,12.01 30.412,29.749 30.77,53.218c0.331,23.551 12.259,35.561 35.729,35.836c23.525,0.276 41.266,10.605 53.331,30.769c12.066,20.218 28.292,24.597 48.787,13.028c20.495,-11.348 41.045,-11.348 61.54,0c20.495,11.542 36.748,7.19 48.786,-13.028Zm-79.501,-70.709c-71.127,-0 -128.756,-57.625 -128.756,-128.747c0,-71.067 57.629,-128.692 128.756,-128.692c71.072,-0 128.701,57.625 128.701,128.692c-0,71.122 -57.629,128.747 -128.701,128.747Z" style="fill:none;fill-rule:nonzero;"/><clipPath id="_clip2"><path d="M163.125,455.767c-24.347,-0 -27.601,-11.426 -27.601,-11.426l-95.086,188.423l76.243,-8.638l42.161,63.965c-0,-0 87.846,-184.788 87.846,-183.558c-45.523,-1.148 -27.411,-47.536 -83.563,-48.766Z" clip-rule="nonzero"/></clipPath><g clip-path="url(#_clip2)"><rect x="24.813" y="428.716" width="237.5" height="275" style="fill:#fff;"/></g><clipPath id="_clip3"><path d="M464.327,447.936c-70.76,7.344 -56.371,24.773 -72.555,38.31c-18.616,19.702 -41.871,15.839 -41.871,15.839l109.233,186.476l26.873,-69.055l76.394,9.893l-98.074,-181.463Z" clip-rule="nonzero"/></clipPath><g clip-path="url(#_clip3)"><rect x="334.276" y="432.311" width="243.75" height="271.875" style="fill:#fff;"/></g><clipPath id="_clip4"><path d="M327.246,229.663l-27.012,-54.429l-27.04,54.429l-60.46,8.797l43.695,42.416l-10.303,59.983l54.108,-28.287l54.107,28.287l-10.302,-59.983l43.695,-42.416l-60.488,-8.797Z" clip-rule="nonzero"/></clipPath><g clip-path="url(#_clip4)"><rect x="197.109" y="159.609" width="206.25" height="196.875" style="fill:#fff;"/></g><path d="M327.246,229.663l-27.012,-54.429l-27.04,54.429l-60.46,8.797l43.695,42.416l-10.303,59.983l54.108,-28.287l54.107,28.287l-10.302,-59.983l43.695,-42.416l-60.488,-8.797Z" style="fill:none;fill-rule:nonzero;"/></svg>