<?xml version="1.0" encoding="UTF-8" standalone="no"?><!DOCTYPE svg PUBLIC "-//W3C//DTD SVG 1.1//EN" "http://www.w3.org/Graphics/SVG/1.1/DTD/svg11.dtd"><svg width="100%" height="100%" viewBox="0 0 538 685" version="1.1" xmlns="http://www.w3.org/2000/svg" xmlns:xlink="http://www.w3.org/1999/xlink" xml:space="preserve" xmlns:serif="http://www.serif.com/" style="fill-rule:evenodd;clip-rule:evenodd;stroke-linejoin:round;stroke-miterlimit:2;"><clipPath id="_clip1"><path d="M344.868,225c-22.383,14.223 -49.062,22.497 -77.681,22.497c-28.618,-0 -55.297,-8.274 -77.68,-22.497c-24.743,9.253 -47.684,22.905 -67.632,40.425l145.313,53.325l145.312,-53.325c-19.948,-17.52 -42.889,-31.173 -67.632,-40.425Z" clip-rule="nonzero"/></clipPath><g clip-path="url(#_clip1)"><rect x="106.25" y="209.375" width="321.875" height="125" style="fill:#fff;"/></g><clipPath id="_clip2"><path d="M491.927,384.375l-13.021,0c-10.786,0 -19.531,8.095 -19.531,18.08l0,48.215c0,9.985 8.745,18.08 19.531,18.08l13.021,0c25.169,0 45.573,-18.888 45.573,-42.187c0,-23.3 -20.404,-42.188 -45.573,-42.188Z" clip-rule="nonzero"/></clipPath><g clip-path="url(#_clip2)"><rect x="443.75" y="368.75" width="109.375" height="115.625" style="fill:#fff;"/></g><clipPath id="_clip3"><path d="M58.07,293.931c-5.055,3.467 -8.07,9.166 -8.07,15.252l0,41.313l6.25,-0c31.016,-0 56.25,24.973 56.25,55.669l0,49.483c0,30.696 -25.234,55.669 -56.25,55.669l-6.25,0l0,39.098c0,7.736 4.849,14.66 12.166,17.375l187.834,69.71l0,-280.869l-174.666,-64.823c-5.759,-2.139 -12.21,-1.346 -17.264,2.123Z" clip-rule="nonzero"/></clipPath><g clip-path="url(#_clip3)"><rect x="34.375" y="275" width="231.25" height="378.125" style="fill:#fff;"/></g><path d="M58.07,293.931c-5.055,3.467 -8.07,9.165 -8.07,15.252l0,41.313l6.25,-0c31.016,-0 56.25,24.973 56.25,55.668l0,49.484c0,30.696 -25.234,55.669 -56.25,55.669l-6.25,0l0,39.098c0,7.736 4.849,14.66 12.166,17.375l187.834,69.71l0,-280.869l-174.666,-64.823c-5.759,-2.139 -12.21,-1.346 -17.264,2.123Z" style="fill:#fff;fill-rule:nonzero;"/><clipPath id="_clip4"><path d="M425,455.648l0,-49.483c0,-30.696 25.234,-55.669 56.25,-55.669l6.25,-0l0,-41.313c0,-6.086 -3.015,-11.785 -8.07,-15.252c-5.055,-3.469 -11.508,-4.262 -17.264,-2.123l-174.666,64.823l0,280.869l187.834,-69.71c7.317,-2.715 12.166,-9.639 12.166,-17.375l0,-39.098l-6.25,-0c-31.016,-0 -56.25,-24.973 -56.25,-55.669Z" clip-rule="nonzero"/></clipPath><g clip-path="url(#_clip4)"><rect x="271.875" y="275" width="231.25" height="378.125" style="fill:#fff;"/></g><path d="M425,455.648l0,-49.484c0,-30.695 25.234,-55.668 56.25,-55.668l6.25,-0l0,-41.313c0,-6.087 -3.015,-11.785 -8.07,-15.252c-5.055,-3.469 -11.507,-4.262 -17.264,-2.123l-174.666,64.823l0,280.869l187.834,-69.71c7.317,-2.715 12.166,-9.639 12.166,-17.375l0,-39.098l-6.25,-0c-31.016,-0 -56.25,-24.973 -56.25,-55.669Z" style="fill:#fff;fill-rule:nonzero;"/><clipPath id="_clip5"><path d="M78.125,450.67l0,-48.215c0,-9.985 -8.745,-18.08 -19.531,-18.08l-13.021,-0c-25.169,-0 -45.573,18.888 -45.573,42.187c0,23.3 20.404,42.188 45.573,42.188l13.021,-0c10.786,-0 19.531,-8.095 19.531,-18.08Z" clip-rule="nonzero"/></clipPath><g clip-path="url(#_clip5)"><rect x="-15.625" y="368.75" width="109.375" height="115.625" style="fill:#fff;"/></g><clipPath id="_clip6"><path d="M268.75,209.375c56.954,0 103.125,-46.87 103.125,-104.688c0,-57.817 -46.171,-104.687 -103.125,-104.687c-56.954,0 -103.125,46.87 -103.125,104.688c0,57.817 46.171,104.687 103.125,104.687Z" clip-rule="nonzero"/></clipPath><g clip-path="url(#_clip6)"><rect x="150" y="-15.625" width="237.5" height="240.625" style="fill:#fff;"/></g></svg>