<?xml version="1.0" encoding="UTF-8" standalone="no"?><!DOCTYPE svg PUBLIC "-//W3C//DTD SVG 1.1//EN" "http://www.w3.org/Graphics/SVG/1.1/DTD/svg11.dtd"><svg width="100%" height="100%" viewBox="0 0 138 138" version="1.1" xmlns="http://www.w3.org/2000/svg" xmlns:xlink="http://www.w3.org/1999/xlink" xml:space="preserve" xmlns:serif="http://www.serif.com/" style="fill-rule:evenodd;clip-rule:evenodd;stroke-linejoin:round;stroke-miterlimit:2;"><clipPath id="_clip1"><path d="M16.02,1.333l104.811,0c8.164,0 14.782,6.619 14.782,14.782l0,104.811c0,8.164 -6.618,14.782 -14.782,14.782l-104.811,0c-8.164,0 -14.782,-6.618 -14.782,-14.782l0,-104.811c0,-8.163 6.618,-14.782 14.782,-14.782Z" clip-rule="nonzero"/></clipPath><g clip-path="url(#_clip1)"><rect x="-14.387" y="-14.292" width="165.625" height="165.625" style="fill:#00649c;"/></g><clipPath id="_clip2"><path d="M52.394,54.521c-6.058,-0 -10.968,4.91 -10.968,10.969c-0,6.059 4.91,10.968 10.968,10.968c6.06,0 10.969,-4.909 10.969,-10.968c0,-6.059 -4.909,-10.969 -10.969,-10.969Z" clip-rule="nonzero"/></clipPath><g clip-path="url(#_clip2)"><rect x="25.801" y="38.896" width="53.188" height="53.187" style="fill:#fff;"/></g><clipPath id="_clip3"><path d="M106.676,32.583l-73.125,0c-4.021,0 -7.313,3.324 -7.313,7.384l0,36.913l7.313,-0l0,-11.074c0,-10.176 8.201,-18.457 18.281,-18.457c10.079,-0 18.281,8.281 18.281,18.457l0,2.805l16.767,-16.937l15.511,15.661l-19.167,19.351c-1.32,1.333 -2.053,3.085 -2.118,4.96l25.569,-0c4.021,-0 7.313,-3.324 7.313,-7.383l0,-44.296c0,-4.06 -3.291,-7.384 -7.312,-7.384Z" clip-rule="nonzero"/></clipPath><g clip-path="url(#_clip3)"><rect x="10.613" y="16.958" width="119" height="90.313" style="fill:#fff;"/></g><clipPath id="_clip4"><path d="M86.88,61.271l-19.352,19.778c-1.421,1.45 -4.231,2.641 -6.241,2.641l-20.424,-0c-8.077,-0 -14.625,6.692 -14.625,14.946l0,14.947l47.531,0l0,-22.156c0,-4.127 1.639,-7.865 4.285,-10.568l13.997,-14.304l-5.171,-5.284Z" clip-rule="nonzero"/></clipPath><g clip-path="url(#_clip4)"><rect x="10.613" y="45.646" width="97.063" height="83.563" style="fill:#fff;"/></g></svg>