<?xml version="1.0" encoding="UTF-8" standalone="no"?><!DOCTYPE svg PUBLIC "-//W3C//DTD SVG 1.1//EN" "http://www.w3.org/Graphics/SVG/1.1/DTD/svg11.dtd"><svg width="100%" height="100%" viewBox="0 0 138 138" version="1.1" xmlns="http://www.w3.org/2000/svg" xmlns:xlink="http://www.w3.org/1999/xlink" xml:space="preserve" xmlns:serif="http://www.serif.com/" style="fill-rule:evenodd;clip-rule:evenodd;stroke-linejoin:round;stroke-miterlimit:2;"><clipPath id="_clip1"><path d="M15.475,1.563l106.55,-0c7.684,-0 13.913,6.228 13.913,13.912l-0,106.55c-0,7.684 -6.229,13.912 -13.913,13.912l-106.55,0c-7.684,0 -13.912,-6.228 -13.912,-13.912l-0,-106.55c-0,-7.684 6.228,-13.913 13.912,-13.913Z" clip-rule="nonzero"/></clipPath><g clip-path="url(#_clip1)"><rect x="-14.063" y="-14.063" width="165.625" height="165.625" style="fill:#0e8d18;"/></g><clipPath id="_clip2"><path d="M34.901,93.981c-2.47,-2.71 -3.978,-6.309 -3.978,-10.255c-0,-8.401 6.834,-15.235 15.234,-15.235c8.401,0 15.235,6.834 15.235,15.235c-0,4.007 -1.558,7.655 -4.096,10.377c4.619,2.216 8.495,5.743 11.141,10.095c2.647,-4.352 6.523,-7.879 11.142,-10.095c-2.538,-2.722 -4.096,-6.37 -4.096,-10.377c0,-8.401 6.834,-15.235 15.235,-15.235c8.4,0 15.234,6.834 15.234,15.235c0,3.946 -1.508,7.545 -3.978,10.255c8.976,4.184 15.213,13.292 15.213,23.832l-7.617,-0.001c0,-10.289 -8.372,-18.662 -18.662,-18.662c-10.29,0 -18.662,8.373 -18.662,18.663l-7.617,-0c-0,-10.29 -8.372,-18.663 -18.662,-18.663c-10.29,0 -18.662,8.373 -18.662,18.663l-7.618,-0c0,-10.54 6.238,-19.648 15.214,-23.832Zm55.817,-17.873c-4.2,0 -7.617,3.418 -7.617,7.618c-0,4.199 3.417,7.617 7.617,7.617c4.2,-0 7.617,-3.418 7.617,-7.617c-0,-4.2 -3.417,-7.618 -7.617,-7.618Zm-44.561,0c-4.2,0 -7.617,3.418 -7.617,7.618c0,4.199 3.417,7.617 7.617,7.617c4.2,-0 7.617,-3.418 7.617,-7.617c0,-4.2 -3.417,-7.618 -7.617,-7.618Zm3.238,-32.944l7.617,0l-0,-7.617l-7.617,-0l-0,7.617Zm15.234,0l7.617,0l0,-7.617l-7.617,-0l-0,7.617Zm15.234,0l7.617,0l0,-7.617l-7.617,-0l0,7.617Zm12.569,15.234l-5.328,0l-6.057,8.189l-6.325,-8.189l-12.759,0l-6.284,8.189l-6.284,-8.189l-4.952,0c-8.4,0 -15.234,-6.833 -15.234,-15.234l-0,-7.617c-0,-8.401 6.834,-15.234 15.234,-15.234l47.989,-0c8.4,-0 15.234,6.833 15.234,15.234l0,7.617c0,8.401 -6.834,15.234 -15.234,15.234Zm7.617,-22.851c-0,-4.2 -3.418,-7.617 -7.617,-7.617l-47.989,-0c-4.2,-0 -7.617,3.417 -7.617,7.617l0,7.617c0,4.2 3.417,7.617 7.617,7.617l47.989,0c4.199,0 7.617,-3.417 7.617,-7.617l-0,-7.617Z" clip-rule="nonzero"/></clipPath><g clip-path="url(#_clip2)"><rect x="4.063" y="4.688" width="128.75" height="128.75" style="fill:#fff;"/></g></svg>