<?xml version="1.0" encoding="UTF-8" standalone="no"?><!DOCTYPE svg PUBLIC "-//W3C//DTD SVG 1.1//EN" "http://www.w3.org/Graphics/SVG/1.1/DTD/svg11.dtd"><svg width="100%" height="100%" viewBox="0 0 138 138" version="1.1" xmlns="http://www.w3.org/2000/svg" xmlns:xlink="http://www.w3.org/1999/xlink" xml:space="preserve" xmlns:serif="http://www.serif.com/" style="fill-rule:evenodd;clip-rule:evenodd;stroke-linejoin:round;stroke-miterlimit:2;"><clipPath id="_clip1"><path d="M16.401,1.572l104.811,-0c8.164,-0 14.782,6.618 14.782,14.782l0,104.81c0,8.164 -6.618,14.783 -14.782,14.783l-104.811,-0c-8.164,-0 -14.782,-6.619 -14.782,-14.783l0,-104.81c0,-8.164 6.618,-14.782 14.782,-14.782Z" clip-rule="nonzero"/></clipPath><g clip-path="url(#_clip1)"><rect x="-14.006" y="-14.053" width="165.625" height="165.625" style="fill:#9bda46;"/></g><clipPath id="_clip2"><path d="M77.054,108.879l-2.912,0c-2.417,-1.337 -4.127,-3.52 -4.818,-6.057l-20.41,-0c-0.69,2.537 -2.401,4.72 -4.818,6.057l-2.912,0c-1.485,0 -2.69,1.163 -2.69,2.596c0,1.434 1.205,2.597 2.69,2.597l35.87,-0c1.486,-0 2.69,-1.163 2.69,-2.597c0,-1.433 -1.204,-2.596 -2.69,-2.596Z" clip-rule="nonzero"/></clipPath><g clip-path="url(#_clip2)"><rect x="22.869" y="87.197" width="72.5" height="42.5" style="fill:#fff;"/></g><clipPath id="_clip3"><path d="M114.577,20.322l-35.916,-0c-1.473,-0 -2.667,1.399 -2.667,3.125l0,6.25l41.25,-0l0,-6.25c0,-1.726 -1.194,-3.125 -2.667,-3.125Z" clip-rule="nonzero"/></clipPath><g clip-path="url(#_clip3)"><rect x="60.369" y="4.697" width="72.5" height="40.625" style="fill:#fff;"/></g><rect x="100.369" y="65.322" width="15" height="5.625" style="fill:#fff;"/><clipPath id="_clip4"><path d="M74.119,38.863l11.913,0c7.353,0 13.335,6.075 13.335,13.542l0,5.417l16.002,-0l0,-24.375l-41.25,-0l0,5.416Zm32.411,2.201c1.627,-0 2.946,1.364 2.946,3.047c0,1.682 -1.319,3.046 -2.946,3.046c-1.627,0 -2.947,-1.364 -2.947,-3.046c0,-1.683 1.32,-3.047 2.947,-3.047Z" clip-rule="nonzero"/></clipPath><g clip-path="url(#_clip4)"><rect x="58.494" y="17.822" width="72.5" height="55.625" style="fill:#fff;"/></g><clipPath id="_clip5"><path d="M99.744,74.697l0,13.125c0,7.754 -5.841,14.062 -13.021,14.062l-8.854,0l0,0.938c4.308,-0 7.813,3.785 7.813,8.437c-0,0.986 -0.159,1.932 -0.448,2.813l27.531,-0c1.438,-0 2.604,-1.26 2.604,-2.813l0,-36.562l-15.625,-0Zm6.971,6.057c1.593,0 2.885,1.356 2.885,3.029c-0,1.673 -1.292,3.029 -2.885,3.029c-1.593,-0 -2.884,-1.356 -2.884,-3.029c-0,-1.673 1.291,-3.029 2.884,-3.029Zm-2.884,13.251c-0,-1.463 1.291,-2.65 2.884,-2.65c1.593,0 2.885,1.187 2.885,2.65l-0,5.301c-0,1.464 -1.292,2.65 -2.885,2.65c-1.593,0 -2.884,-1.186 -2.884,-2.65l-0,-5.301Z" clip-rule="nonzero"/></clipPath><g clip-path="url(#_clip5)"><rect x="62.244" y="59.072" width="68.75" height="70.625" style="fill:#fff;"/></g><clipPath id="_clip6"><path d="M94.744,54.392c0,-4.319 -3.662,-7.82 -8.179,-7.82l-54.892,-0c-4.517,-0 -8.179,3.501 -8.179,7.82l0,27.805l71.25,-0l0,-27.805Z" clip-rule="nonzero"/></clipPath><g clip-path="url(#_clip6)"><rect x="7.869" y="30.947" width="102.5" height="66.875" style="fill:#fff;"/></g><clipPath id="_clip7"><path d="M94.744,87.822l-71.25,-0c0,5.177 3.662,9.375 8.179,9.375l54.892,-0c4.517,-0 8.179,-4.198 8.179,-9.375Z" clip-rule="nonzero"/></clipPath><g clip-path="url(#_clip7)"><rect x="7.869" y="72.197" width="102.5" height="40.625" style="fill:#fff;"/></g></svg>