<?xml version="1.0" encoding="UTF-8" standalone="no"?><!DOCTYPE svg PUBLIC "-//W3C//DTD SVG 1.1//EN" "http://www.w3.org/Graphics/SVG/1.1/DTD/svg11.dtd"><svg width="100%" height="100%" viewBox="0 0 138 138" version="1.1" xmlns="http://www.w3.org/2000/svg" xmlns:xlink="http://www.w3.org/1999/xlink" xml:space="preserve" xmlns:serif="http://www.serif.com/" style="fill-rule:evenodd;clip-rule:evenodd;stroke-linejoin:round;stroke-miterlimit:2;"><clipPath id="_clip1"><path d="M16.306,1.333l104.811,0c8.164,0 14.782,6.619 14.782,14.782l-0,104.811c-0,8.164 -6.618,14.782 -14.782,14.782l-104.811,0c-8.164,0 -14.782,-6.618 -14.782,-14.782l-0,-104.811c-0,-8.163 6.618,-14.782 14.782,-14.782Z" clip-rule="nonzero"/></clipPath><g clip-path="url(#_clip1)"><rect x="-14.101" y="-14.292" width="165.625" height="165.625" style="fill:#ff6f12;"/></g><clipPath id="_clip2"><path d="M49.129,70.083c-12.509,0 -22.676,9.742 -22.605,21.689c0.072,11.898 10.379,21.436 22.853,21.436l12.772,0l-0,-43.125l-13.02,0Zm3.836,25.223c-2.119,2.02 -5.554,2.02 -7.673,-0c-2.119,-2.022 -2.119,-5.298 -0,-7.32c2.119,-2.021 5.554,-2.021 7.673,0c2.118,2.022 2.118,5.298 0,7.32Z" clip-rule="nonzero"/></clipPath><g clip-path="url(#_clip2)"><rect x="10.899" y="54.458" width="66.875" height="74.375" style="fill:#fff;"/></g><clipPath id="_clip3"><rect x="65.899" y="70.083" width="13.125" height="43.125" clip-rule="nonzero"/></clipPath><g clip-path="url(#_clip3)"><rect x="50.274" y="54.458" width="44.375" height="74.375" style="fill:#fff;"/></g><clipPath id="_clip4"><rect x="84.649" y="70.083" width="13.125" height="43.125" clip-rule="nonzero"/></clipPath><g clip-path="url(#_clip4)"><rect x="69.024" y="54.458" width="44.375" height="74.375" style="fill:#fff;"/></g><clipPath id="_clip5"><path d="M110.399,70.083l-7,0l-0,43.125l7,0c3.383,0 6.125,-2.703 6.125,-6.037l-0,-31.05c-0,-3.334 -2.742,-6.038 -6.125,-6.038Z" clip-rule="nonzero"/></clipPath><g clip-path="url(#_clip5)"><rect x="87.774" y="54.458" width="44.375" height="74.375" style="fill:#fff;"/></g><clipPath id="_clip6"><path d="M60.274,41.958l-33.75,0l-0,13.125l20.271,0l13.479,-13.125Z" clip-rule="nonzero"/></clipPath><g clip-path="url(#_clip6)"><rect x="10.899" y="26.333" width="65" height="44.375" style="fill:#fff;"/></g><clipPath id="_clip7"><path d="M69.649,30.698l-0,-1.365c-0,-3.382 -2.703,-6.125 -6.038,-6.125l-31.05,0c-3.334,0 -6.037,2.743 -6.037,6.125l-0,7l37.57,0l5.555,-5.635Z" clip-rule="nonzero"/></clipPath><g clip-path="url(#_clip7)"><rect x="10.899" y="7.583" width="74.375" height="44.375" style="fill:#fff;"/></g><clipPath id="_clip8"><path d="M41.524,60.708l-15,0l-0,15c0.836,-1.101 1.763,-2.149 2.779,-3.135l12.221,-11.865Z" clip-rule="nonzero"/></clipPath><g clip-path="url(#_clip8)"><rect x="10.899" y="45.083" width="46.25" height="46.25" style="fill:#fff;"/></g><clipPath id="_clip9"><path d="M58.399,50.944l14.486,13.514l19.264,0l-24.118,-22.5l-9.632,8.986Z" clip-rule="nonzero"/></clipPath><g clip-path="url(#_clip9)"><rect x="42.774" y="26.333" width="65" height="53.75" style="fill:#fff;"/></g><clipPath id="_clip10"><path d="M107.239,63.492c2.38,-2.396 2.38,-6.281 -0,-8.677l-22.168,-22.31c-2.381,-2.395 -6.24,-2.395 -8.621,-0l-4.926,4.958l26.822,26.995l7.933,0l0.96,-0.966Z" clip-rule="nonzero"/></clipPath><g clip-path="url(#_clip10)"><rect x="55.899" y="15.083" width="68.75" height="65" style="fill:#fff;"/></g><clipPath id="_clip11"><path d="M45.274,64.458c1.335,-0.181 2.695,-0.274 4.07,-0.274l16.555,0l-10.16,-9.101l-10.465,9.375Z" clip-rule="nonzero"/></clipPath><g clip-path="url(#_clip11)"><rect x="29.649" y="39.458" width="51.875" height="40.625" style="fill:#fff;"/></g></svg>