<?xml version="1.0" encoding="UTF-8" standalone="no"?><!DOCTYPE svg PUBLIC "-//W3C//DTD SVG 1.1//EN" "http://www.w3.org/Graphics/SVG/1.1/DTD/svg11.dtd"><svg width="100%" height="100%" viewBox="0 0 138 138" version="1.1" xmlns="http://www.w3.org/2000/svg" xmlns:xlink="http://www.w3.org/1999/xlink" xml:space="preserve" xmlns:serif="http://www.serif.com/" style="fill-rule:evenodd;clip-rule:evenodd;stroke-linejoin:round;stroke-miterlimit:2;"><clipPath id="_clip1"><path d="M15.353,1.631l106.55,-0c7.683,-0 13.912,6.229 13.912,13.912l0,106.55c0,7.684 -6.229,13.913 -13.912,13.913l-106.55,-0c-7.684,-0 -13.913,-6.229 -13.913,-13.913l0,-106.55c0,-7.683 6.229,-13.912 13.913,-13.912Z" clip-rule="nonzero"/></clipPath><g clip-path="url(#_clip1)"><rect x="-14.185" y="-13.994" width="165.625" height="165.625" style="fill:#ff6f12;"/></g><clipPath id="_clip2"><path d="M116.74,71.016c0.126,-1.605 -1.072,-3.003 -2.673,-3.122c-1.603,-0.119 -3.003,1.086 -3.129,2.691c-0.612,7.822 -3.324,15.367 -7.843,21.82c-13.909,19.864 -41.31,24.76 -61.083,10.915c-7.445,-5.213 -12.958,-12.449 -15.987,-20.835l2.454,1.718c1.314,0.92 3.13,0.596 4.054,-0.724c0.925,-1.321 0.609,-3.138 -0.706,-4.058l-8.975,-6.285c-1.315,-0.92 -3.13,-0.596 -4.054,0.725l-6.314,9.017c-0.925,1.32 -0.609,3.137 0.706,4.057c1.314,0.92 3.129,0.596 4.054,-0.724l2.625,-3.75c3.245,10.366 9.764,19.318 18.795,25.641c10.85,7.597 24.022,10.495 37.09,8.16c13.069,-2.336 24.469,-9.624 32.101,-20.524c5.119,-7.31 8.191,-15.859 8.885,-24.722Z" clip-rule="nonzero"/></clipPath><g clip-path="url(#_clip2)"><path d="M83.12,158.305l-95.636,-66.965l61.856,-88.34l95.636,66.965l-61.856,88.34Z" style="fill:#fff;"/></g><clipPath id="_clip3"><path d="M30.974,41.758c13.909,-19.864 41.31,-24.76 61.083,-10.915c7.445,5.213 12.958,12.449 15.987,20.836l-2.454,-1.719c-1.315,-0.92 -3.13,-0.596 -4.054,0.725c-0.925,1.32 -0.609,3.137 0.706,4.057l8.975,6.285c1.315,0.92 3.13,0.596 4.054,-0.724l6.314,-9.017c0.925,-1.321 0.608,-3.137 -0.706,-4.058c-1.314,-0.92 -3.129,-0.596 -4.054,0.725l-2.625,3.749c-3.245,-10.366 -9.764,-19.317 -18.795,-25.641c-10.85,-7.597 -24.022,-10.495 -37.09,-8.16c-13.069,2.336 -24.469,9.624 -32.101,20.524c-5.119,7.31 -8.191,15.859 -8.885,24.722c-0.083,1.066 0.416,2.039 1.229,2.609c0.412,0.288 0.905,0.473 1.445,0.513c1.602,0.119 3.002,-1.086 3.128,-2.691c0.612,-7.822 3.324,-15.367 7.843,-21.82Z" clip-rule="nonzero"/></clipPath><g clip-path="url(#_clip3)"><path d="M84.729,131.163l-95.636,-66.965l61.856,-88.34l95.636,66.965l-61.856,88.34Z" style="fill:#fff;"/></g><clipPath id="_clip4"><path d="M40.77,48.691c-10.14,14.482 -6.608,34.514 7.874,44.655c14.482,10.14 34.514,6.608 44.655,-7.874c10.14,-14.482 6.608,-34.514 -7.874,-44.654c-14.482,-10.141 -34.514,-6.609 -44.655,7.873Zm5.491,7.403c-1.318,-0.923 -1.639,-2.74 -0.715,-4.059c0.923,-1.319 2.741,-1.639 4.059,-0.716c1.319,0.923 1.639,2.741 0.716,4.06c-0.923,1.318 -2.741,1.639 -4.06,0.715Zm-1.684,17.907c-1.586,0.28 -3.097,-0.779 -3.377,-2.364c-0.279,-1.585 0.779,-3.097 2.364,-3.377c1.586,-0.279 3.098,0.779 3.377,2.365c0.28,1.585 -0.779,3.097 -2.364,3.376Zm18.914,-27.013c-1.585,0.28 -3.097,-0.779 -3.376,-2.364c-0.28,-1.585 0.779,-3.097 2.364,-3.377c1.586,-0.279 3.097,0.779 3.377,2.365c0.279,1.585 -0.779,3.097 -2.365,3.376Zm-11.503,41.582c-1.319,-0.923 -1.639,-2.741 -0.716,-4.059c0.923,-1.319 2.741,-1.639 4.06,-0.716c1.318,0.923 1.639,2.741 0.715,4.06c-0.923,1.318 -2.741,1.639 -4.059,0.715Zm17.434,-19.817c-0.443,0.634 -1.12,1.065 -1.881,1.199l-12.439,2.193c-0.793,0.14 -1.567,-0.055 -2.178,-0.482c-0.611,-0.428 -1.059,-1.089 -1.199,-1.882c-0.279,-1.585 0.779,-3.097 2.365,-3.377l11.249,-1.983l6.552,-9.358c0.924,-1.318 2.741,-1.639 4.06,-0.716c1.319,0.924 1.639,2.741 0.716,4.06l-7.245,10.346Zm18.385,9.316c1.319,0.923 1.64,2.741 0.716,4.059c-0.923,1.319 -2.741,1.639 -4.059,0.716c-1.319,-0.923 -1.639,-2.741 -0.716,-4.06c0.923,-1.318 2.741,-1.639 4.059,-0.715Zm1.685,-17.907c1.586,-0.28 3.097,0.779 3.377,2.364c0.279,1.586 -0.779,3.097 -2.365,3.377c-1.585,0.279 -3.097,-0.779 -3.376,-2.364c-0.28,-1.586 0.779,-3.098 2.364,-3.377Zm-18.915,27.013c1.586,-0.28 3.098,0.779 3.377,2.364c0.28,1.586 -0.779,3.097 -2.364,3.377c-1.586,0.279 -3.097,-0.779 -3.377,-2.364c-0.279,-1.586 0.779,-3.097 2.364,-3.377Zm12.22,-37.523c-0.923,1.319 -2.741,1.639 -4.06,0.716c-1.318,-0.923 -1.639,-2.741 -0.715,-4.059c0.923,-1.319 2.74,-1.64 4.059,-0.716c1.319,0.923 1.639,2.741 0.716,4.059Z" clip-rule="nonzero"/></clipPath><g clip-path="url(#_clip4)"><path d="M78.745,133.497l-78.126,-54.705l54.705,-78.126l78.126,54.705l-54.705,78.126Z" style="fill:#fff;"/></g></svg>