<?xml version="1.0" encoding="UTF-8" standalone="no"?><!DOCTYPE svg PUBLIC "-//W3C//DTD SVG 1.1//EN" "http://www.w3.org/Graphics/SVG/1.1/DTD/svg11.dtd"><svg width="100%" height="100%" viewBox="0 0 138 138" version="1.1" xmlns="http://www.w3.org/2000/svg" xmlns:xlink="http://www.w3.org/1999/xlink" xml:space="preserve" xmlns:serif="http://www.serif.com/" style="fill-rule:evenodd;clip-rule:evenodd;stroke-linejoin:round;stroke-miterlimit:2;"><clipPath id="_clip1"><path d="M16.198,1.905l106.55,-0c7.684,-0 13.913,6.229 13.913,13.912l-0,106.55c-0,7.684 -6.229,13.913 -13.913,13.913l-106.55,-0c-7.683,-0 -13.912,-6.229 -13.912,-13.913l-0,-106.55c-0,-7.683 6.229,-13.912 13.912,-13.912Z" clip-rule="nonzero"/></clipPath><g clip-path="url(#_clip1)"><rect x="-13.339" y="-13.72" width="165.625" height="165.625" style="fill:#fedd00;"/></g><clipPath id="_clip2"><path d="M68.536,34.405c5.178,-0 9.375,-3.778 9.375,-8.438c-0,-4.66 -4.197,-8.437 -9.375,-8.437c-5.178,-0 -9.375,3.777 -9.375,8.437c-0,4.66 4.197,8.438 9.375,8.438Z" clip-rule="nonzero"/></clipPath><g clip-path="url(#_clip2)"><rect x="43.536" y="1.905" width="50" height="48.125" style="fill:#fff;"/></g><clipPath id="_clip3"><path d="M81.862,28.78c-1.477,6.328 -7.299,11.077 -14.264,11.077c-6.965,0 -12.786,-4.749 -14.263,-11.077c-5.24,1.132 -9.174,5.659 -9.174,11.077l-0,11.365c-0,3.133 2.629,5.683 5.859,5.683c3.23,-0 5.86,-2.55 5.86,-5.683l-0,-5.682l23.437,-0l0,5.682c0,3.133 2.629,5.683 5.859,5.683c3.231,-0 5.86,-2.55 5.86,-5.683l-0,-11.365c-0,-5.418 -3.935,-9.945 -9.174,-11.077Z" clip-rule="nonzero"/></clipPath><g clip-path="url(#_clip3)"><rect x="28.536" y="13.155" width="78.125" height="59.375" style="fill:#fff;"/></g><clipPath id="_clip4"><path d="M114.356,88.037c-4.446,-2.33 -10.131,-0.948 -12.698,3.087c-2.567,4.035 -1.044,9.195 3.402,11.524c4.446,2.33 10.338,0.947 12.905,-3.087c2.567,-4.035 0.837,-9.195 -3.609,-11.524Z" clip-rule="nonzero"/></clipPath><g clip-path="url(#_clip4)"><rect x="84.786" y="71.28" width="50" height="48.125" style="fill:#fff;"/></g><clipPath id="_clip5"><path d="M107.846,69.166l-9.883,-5.853c-2.725,-1.614 -6.222,-0.652 -7.795,2.142c-1.573,2.795 -0.636,6.382 2.089,7.996l4.942,2.926l-11.413,20.276l-4.942,-2.926c-2.725,-1.614 -6.222,-0.652 -7.795,2.142c-1.573,2.795 -0.636,6.383 2.089,7.996l9.883,5.853c4.712,2.791 10.565,1.718 14.101,-2.231c-4.784,-4.537 -6.08,-12.019 -2.688,-18.045c3.391,-6.026 10.356,-8.616 16.579,-6.635c1.567,-5.115 -0.454,-10.851 -5.167,-13.641Z" clip-rule="nonzero"/></clipPath><g clip-path="url(#_clip5)"><rect x="56.661" y="46.905" width="72.5" height="80" style="fill:#fff;"/></g><clipPath id="_clip6"><path d="M35.414,91.124c-2.567,-4.035 -8.252,-5.417 -12.698,-3.087c-4.446,2.329 -6.176,7.488 -3.609,11.524c2.567,4.034 8.459,5.417 12.904,3.087c4.447,-2.329 5.97,-7.489 3.403,-11.524Z" clip-rule="nonzero"/></clipPath><g clip-path="url(#_clip6)"><rect x="2.286" y="71.28" width="50" height="48.125" style="fill:#fff;"/></g><clipPath id="_clip7"><path d="M63.988,95.869c-1.644,-2.794 -5.301,-3.756 -8.149,-2.142l-5.167,2.926l-11.931,-20.276l5.166,-2.926c2.849,-1.614 3.828,-5.202 2.184,-7.996c-1.644,-2.794 -5.301,-3.756 -8.149,-2.142l-10.333,5.853c-4.927,2.79 -7.04,8.526 -5.401,13.641c6.505,-1.981 13.787,0.609 17.333,6.635c3.545,6.026 2.19,13.508 -2.811,18.045c3.696,3.949 9.815,5.022 14.742,2.231l10.333,-5.853c2.848,-1.614 3.827,-5.201 2.183,-7.996Z" clip-rule="nonzero"/></clipPath><g clip-path="url(#_clip7)"><rect x="6.036" y="46.905" width="74.375" height="80" style="fill:#fff;"/></g></svg>