<?xml version="1.0" encoding="UTF-8" standalone="no"?><!DOCTYPE svg PUBLIC "-//W3C//DTD SVG 1.1//EN" "http://www.w3.org/Graphics/SVG/1.1/DTD/svg11.dtd"><svg width="100%" height="100%" viewBox="0 0 138 138" version="1.1" xmlns="http://www.w3.org/2000/svg" xmlns:xlink="http://www.w3.org/1999/xlink" xml:space="preserve" xmlns:serif="http://www.serif.com/" style="fill-rule:evenodd;clip-rule:evenodd;stroke-linejoin:round;stroke-miterlimit:2;"><clipPath id="_clip1"><path d="M16.877,1.667l104.811,-0c8.164,-0 14.782,6.618 14.782,14.782l0,104.811c0,8.164 -6.618,14.782 -14.782,14.782l-104.811,-0c-8.164,-0 -14.782,-6.618 -14.782,-14.782l0,-104.811c0,-8.164 6.618,-14.782 14.782,-14.782Z" clip-rule="nonzero"/></clipPath><g clip-path="url(#_clip1)"><rect x="-13.53" y="-13.958" width="165.625" height="165.625" style="fill:#9bda46;"/></g><clipPath id="_clip2"><path d="M94.699,26.667l-8.854,8.855l1.834,1.833l11.852,11.852l1.836,1.835l8.853,-8.855l-15.521,-15.52Z" clip-rule="nonzero"/></clipPath><g clip-path="url(#_clip2)"><rect x="70.22" y="11.042" width="55.625" height="55.625" style="fill:#fff;"/></g><clipPath id="_clip3"><path d="M31.561,92.292l-5.716,20.625l18.75,-6.769l-13.034,-13.856Z" clip-rule="nonzero"/></clipPath><g clip-path="url(#_clip3)"><rect x="10.22" y="76.667" width="50" height="51.875" style="fill:#fff;"/></g><clipPath id="_clip4"><path d="M83.14,41.668l-1.877,-1.876l-47.918,47.918l1.877,1.876l4.58,4.581l47.918,-47.918l-4.58,-4.581Z" clip-rule="nonzero"/></clipPath><g clip-path="url(#_clip4)"><rect x="17.72" y="24.167" width="85.625" height="85.625" style="fill:#fff;"/></g><clipPath id="_clip5"><path d="M95.191,53.009l-3.843,-3.842l-48.628,48.628l3.843,3.843l1.904,1.904l19.757,-19.757l1.905,-1.905l1.904,-1.904l4.383,-4.381l1.904,-1.904l1.903,-1.905l16.872,-16.872l-1.904,-1.905Z" clip-rule="nonzero"/></clipPath><g clip-path="url(#_clip5)"><rect x="27.095" y="33.542" width="85.625" height="85.625" style="fill:#fff;"/></g><clipPath id="_clip6"><path d="M57.881,48.656c1.694,-5.979 0.052,-12.456 -4.408,-16.919c-4.677,-4.676 -11.481,-6.266 -17.754,-4.148l-4.084,1.379l11.263,11.261l-1.241,4.128l-4.124,1.239l-11.262,-11.263l-1.378,4.084c-2.119,6.273 -0.528,13.074 4.148,17.752c3.306,3.304 7.718,5.062 12.213,5.062c1.573,0 3.156,-0.215 4.706,-0.654l3.588,3.59l3.784,-3.784l4.354,-4.355l3.784,-3.784l-3.589,-3.588Z" clip-rule="nonzero"/></clipPath><g clip-path="url(#_clip6)"><rect x="8.345" y="11.042" width="68.75" height="68.75" style="fill:#fff;"/></g><clipPath id="_clip7"><path d="M105.162,83.483c-4.451,-4.451 -10.913,-6.088 -16.88,-4.398l-3.669,-3.668l-1.886,1.887l-1.887,1.888l-4.345,4.343l-1.887,1.887l-1.888,1.888l3.669,3.667c-1.69,5.967 -0.052,12.428 4.398,16.88c3.302,3.3 7.66,5.06 12.144,5.06c1.857,-0 3.736,-0.303 5.568,-0.922l4.072,-1.375l-11.234,-11.235l1.236,-4.117l4.117,-1.237l11.235,11.237l1.375,-4.074c2.113,-6.259 0.526,-13.044 -4.138,-17.711Z" clip-rule="nonzero"/></clipPath><g clip-path="url(#_clip7)"><rect x="57.095" y="59.792" width="68.75" height="68.75" style="fill:#fff;"/></g></svg>