<?xml version="1.0" encoding="UTF-8" standalone="no"?><!DOCTYPE svg PUBLIC "-//W3C//DTD SVG 1.1//EN" "http://www.w3.org/Graphics/SVG/1.1/DTD/svg11.dtd"><svg width="100%" height="100%" viewBox="0 0 138 138" version="1.1" xmlns="http://www.w3.org/2000/svg" xmlns:xlink="http://www.w3.org/1999/xlink" xml:space="preserve" xmlns:serif="http://www.serif.com/" style="fill-rule:evenodd;clip-rule:evenodd;stroke-linejoin:round;stroke-miterlimit:2;"><clipPath id="_clip1"><path d="M15.77,1.762l106.55,0c7.683,0 13.912,6.229 13.912,13.913l0,106.55c0,7.683 -6.229,13.912 -13.912,13.912l-106.55,0c-7.684,0 -13.913,-6.229 -13.913,-13.912l0,-106.55c0,-7.684 6.229,-13.913 13.913,-13.913Z" clip-rule="nonzero"/></clipPath><g clip-path="url(#_clip1)"><rect x="-13.768" y="-13.863" width="165.625" height="165.625" style="fill:#00649c;"/></g><clipPath id="_clip2"><path d="M67.698,20.868c-1.415,0 -2.559,1.221 -2.559,2.73l-0,8.19c-0,1.509 1.144,2.73 2.559,2.73c1.415,0 2.559,-1.221 2.559,-2.73l0,-8.19c0,-1.509 -1.144,-2.73 -2.559,-2.73Z"/></clipPath><g clip-path="url(#_clip2)"><rect x="49.514" y="5.243" width="36.369" height="44.9" style="fill:#fff;"/></g><clipPath id="_clip3"><path d="M52.32,37.952l-5.972,-5.972c-1.166,-1.166 -3.056,-1.166 -4.222,0c-1.167,1.167 -1.167,3.056 -0,4.223l5.972,5.972c1.166,1.166 3.056,1.166 4.222,-0c1.166,-1.167 1.166,-3.056 0,-4.223Z"/></clipPath><g clip-path="url(#_clip3)"><rect x="25.626" y="15.481" width="43.194" height="43.194" style="fill:#fff;"/></g><clipPath id="_clip4"><path d="M91.564,31.98c-1.166,-1.166 -3.056,-1.166 -4.223,0l-5.971,5.972c-1.167,1.167 -1.167,3.056 -0,4.223c1.166,1.166 3.056,1.166 4.222,-0l5.972,-5.972c1.166,-1.167 1.166,-3.056 -0,-4.223Z"/></clipPath><g clip-path="url(#_clip4)"><rect x="64.87" y="15.481" width="43.194" height="43.194" style="fill:#fff;"/></g><clipPath id="_clip5"><path d="M111.683,60.112l-9.007,-0l0,39.244l9.007,-0c1.623,-0 2.937,-1.254 2.937,-2.803l-0,-33.638c-0,-1.549 -1.314,-2.803 -2.937,-2.803Z"/></clipPath><g clip-path="url(#_clip5)"><rect x="87.051" y="44.487" width="43.194" height="70.494" style="fill:#fff;"/></g><clipPath id="_clip6"><path d="M22.007,60.112c-1.624,-0 -2.937,1.254 -2.937,2.803l-0,33.638c-0,1.549 1.313,2.803 2.937,2.803l9.007,-0l-0,-39.244l-9.007,-0Z"/></clipPath><g clip-path="url(#_clip6)"><rect x="3.445" y="44.487" width="43.194" height="70.494" style="fill:#fff;"/></g><clipPath id="_clip7"><path d="M64.904,61.818c-2.117,0 -4.02,1.205 -4.966,3.144l-8.449,17.318c1.414,0.636 2.911,0.958 4.44,0.958c4.226,-0 8.029,-2.413 9.924,-6.301l1.827,-3.744l5.372,0c1.461,0 2.893,0.608 3.925,1.666l20.58,21.084l0,-34.125l-32.653,0Z"/></clipPath><g clip-path="url(#_clip7)"><rect x="35.864" y="46.193" width="77.319" height="65.375" style="fill:#fff;"/></g><clipPath id="_clip8"><path d="M72.712,79.279l-1.942,-0l-0.16,0.327c-2.623,5.343 -7.739,9.115 -13.585,9.601c-4.302,0.359 -7.283,-0.902 -10.817,-2.539c-1.438,-0.665 -2.063,-2.414 -1.357,-3.853l9.771,-19.906c1.881,-3.834 5.729,-6.256 9.938,-6.256l11.985,-0c0.769,-1.735 1.244,-3.63 1.244,-5.657c0,-1.563 -1.242,-2.828 -2.777,-2.828l-21.561,0c-3.156,0 -6.041,1.816 -7.453,4.691l-2.483,5.058c-0.471,0.958 -1.432,1.564 -2.485,1.564l-4.898,0l0,39.595l12.736,0l7.868,8.013c2.28,2.322 5.565,3.055 8.399,2.09l23.717,-7.592c1.417,-0.407 2.612,-1.201 3.587,-2.219l-19.727,-20.089Z"/></clipPath><g clip-path="url(#_clip8)"><rect x="20.507" y="32.543" width="87.556" height="92.675" style="fill:#fff;"/></g></svg>