<?xml version="1.0" encoding="UTF-8" standalone="no"?><!DOCTYPE svg PUBLIC "-//W3C//DTD SVG 1.1//EN" "http://www.w3.org/Graphics/SVG/1.1/DTD/svg11.dtd"><svg width="100%" height="100%" viewBox="0 0 138 138" version="1.1" xmlns="http://www.w3.org/2000/svg" xmlns:xlink="http://www.w3.org/1999/xlink" xml:space="preserve" xmlns:serif="http://www.serif.com/" style="fill-rule:evenodd;clip-rule:evenodd;stroke-linejoin:round;stroke-miterlimit:2;"><clipPath id="_clip1"><path d="M15.675,1.667l106.55,-0c7.683,-0 13.912,6.229 13.912,13.912l0,106.55c0,7.684 -6.229,13.913 -13.912,13.913l-106.55,-0c-7.684,-0 -13.913,-6.229 -13.913,-13.913l0,-106.55c0,-7.683 6.229,-13.912 13.913,-13.912Z" clip-rule="nonzero"/></clipPath><g clip-path="url(#_clip1)"><rect x="-13.863" y="-13.958" width="165.625" height="165.625" style="fill:#0e8d18;"/></g><clipPath id="_clip2"><path d="M66.44,61.886c-4.173,0.03 -7.569,-3.332 -7.599,-7.49c-0.034,-4.172 3.313,-7.564 7.489,-7.598c0.626,-0.004 1.222,0.086 1.802,0.226c4.357,-3.411 10.053,-7.859 10.701,-8.323c1.123,-0.795 2.412,-0.889 3.328,0.027c0.905,0.934 0.811,2.348 -0.037,3.339c-0.291,0.343 -4.882,6.114 -8.402,10.547c0.128,0.539 0.211,1.096 0.215,1.673c0.034,4.154 -3.321,7.569 -7.497,7.599Zm-49.053,37.685c0,-2.085 1.689,-3.77 3.769,-3.77l33.923,0l0,-9.517c-13.154,-4.67 -22.615,-17.206 -22.615,-31.944c-0,-18.703 15.22,-33.923 33.923,-33.923c18.707,-0 33.923,15.22 33.923,33.923c0,14.738 -9.461,27.274 -22.615,31.944l-0,9.517l33.923,0c2.084,0 3.769,1.685 3.769,3.77c0,2.084 -1.685,3.769 -3.769,3.769l-90.462,-0c-2.08,-0 -3.769,-1.685 -3.769,-3.769Zm49,-22.616c12.472,0 22.615,-10.143 22.615,-22.615c0,-12.473 -10.143,-22.616 -22.615,-22.616c-12.472,0 -22.615,10.143 -22.615,22.616c-0,12.472 10.143,22.615 22.615,22.615Zm45.231,33.923l-90.462,0c-2.08,0 -3.769,1.685 -3.769,3.77c0,2.084 1.689,3.769 3.769,3.769l90.462,-0c2.084,-0 3.769,-1.685 3.769,-3.769c0,-2.085 -1.685,-3.77 -3.769,-3.77Z" clip-rule="nonzero"/></clipPath><g clip-path="url(#_clip2)"><rect x="1.762" y="4.792" width="129.25" height="129.25" style="fill:#fff;"/></g></svg>