<?xml version="1.0" encoding="UTF-8" standalone="no"?><!DOCTYPE svg PUBLIC "-//W3C//DTD SVG 1.1//EN" "http://www.w3.org/Graphics/SVG/1.1/DTD/svg11.dtd"><svg width="100%" height="100%" viewBox="0 0 138 138" version="1.1" xmlns="http://www.w3.org/2000/svg" xmlns:xlink="http://www.w3.org/1999/xlink" xml:space="preserve" xmlns:serif="http://www.serif.com/" style="fill-rule:evenodd;clip-rule:evenodd;stroke-linejoin:round;stroke-miterlimit:2;"><clipPath id="_clip1"><path d="M16.401,1.572l104.811,-0c8.164,-0 14.782,6.618 14.782,14.782l0,104.81c0,8.164 -6.618,14.783 -14.782,14.783l-104.811,-0c-8.164,-0 -14.782,-6.619 -14.782,-14.783l0,-104.81c0,-8.164 6.618,-14.782 14.782,-14.782Z" clip-rule="nonzero"/></clipPath><g clip-path="url(#_clip1)"><rect x="-14.006" y="-14.053" width="165.625" height="165.625" style="fill:#074d0c;"/></g><clipPath id="_clip2"><path d="M83.897,91.918c-1.116,1.108 -2.522,1.869 -4.066,2.202l-15.641,3.362c-2.624,0.563 -5.48,-0.156 -7.54,-2.201c-0.444,-0.44 -0.827,-0.924 -1.152,-1.438l-9.567,0c-1.51,0 -2.735,-1.215 -2.735,-2.714c-0,-1.499 1.225,-2.714 2.735,-2.714l8.394,0c0.028,-0.205 0.062,-0.411 0.107,-0.615l1.654,-7.579l-10.155,0c-1.51,0 -2.735,-1.215 -2.735,-2.714c-0,-1.499 1.225,-2.714 2.735,-2.714l11.341,-0l0.548,-2.513c0.334,-1.531 1.101,-2.926 2.218,-4.033l1.66,-1.648l-15.767,0c-1.51,0 -2.735,-1.215 -2.735,-2.714c-0,-1.499 1.225,-2.714 2.735,-2.714l21.238,-0l8.258,-8.194l-29.496,0c-1.51,0 -2.735,-1.215 -2.735,-2.714c-0,-1.499 1.225,-2.714 2.735,-2.714l34.967,0c1.515,-1.503 11.466,-11.377 13.019,-12.918c0.504,-0.5 1.037,-0.96 1.59,-1.388c-0.099,-3.194 -2.746,-5.763 -5.989,-5.763l-49.888,0c-3.305,0 -5.994,2.668 -5.994,5.947l0,72.481c0,3.279 2.689,5.947 5.994,5.947l49.888,0c3.305,0 5.993,-2.668 5.993,-5.947l0,-25.514c-1.094,1.086 -10.116,10.038 -11.614,11.524Z" clip-rule="nonzero"/></clipPath><g clip-path="url(#_clip2)"><rect x="18.011" y="11.855" width="93.125" height="115.625" style="fill:#fff;"/></g><clipPath id="_clip3"><path d="M114.13,39.113c-2.175,-2.105 -5.068,-3.264 -8.144,-3.264c-3.076,-0 -5.969,1.159 -8.144,3.264c-1.746,1.689 -32.589,31.537 -34.231,33.127c-0.365,0.353 -0.631,0.809 -0.747,1.325c-0.457,2.04 -3.036,13.565 -3.423,15.293c-0.198,0.884 0.079,1.812 0.747,2.457c0.665,0.644 1.622,0.915 2.539,0.723c2.114,-0.443 14.036,-2.942 15.803,-3.313c0.531,-0.111 1.004,-0.369 1.369,-0.723c37.315,-36.111 34.773,-33.522 35.676,-34.827c1.262,-1.826 1.928,-3.961 1.928,-6.18c0,-2.978 -1.197,-5.777 -3.373,-7.882Zm-48.378,46.818l2.138,-9.551l7.73,7.482l-9.868,2.069Z" clip-rule="nonzero"/></clipPath><g clip-path="url(#_clip3)"><rect x="43.753" y="20.224" width="89.375" height="87.5" style="fill:#fff;"/></g></svg>