<?xml version="1.0" encoding="UTF-8" standalone="no"?><!DOCTYPE svg PUBLIC "-//W3C//DTD SVG 1.1//EN" "http://www.w3.org/Graphics/SVG/1.1/DTD/svg11.dtd"><svg width="100%" height="100%" viewBox="0 0 138 138" version="1.1" xmlns="http://www.w3.org/2000/svg" xmlns:xlink="http://www.w3.org/1999/xlink" xml:space="preserve" xmlns:serif="http://www.serif.com/" style="fill-rule:evenodd;clip-rule:evenodd;stroke-linejoin:round;stroke-miterlimit:2;"><clipPath id="_clip1"><path d="M15.341,1.714l106.55,0c7.684,0 13.913,6.229 13.913,13.913l-0,106.55c-0,7.684 -6.229,13.912 -13.913,13.912l-106.55,0c-7.683,0 -13.912,-6.228 -13.912,-13.912l-0,-106.55c-0,-7.684 6.229,-13.913 13.912,-13.913Z" clip-rule="nonzero"/></clipPath><g clip-path="url(#_clip1)"><rect x="-14.196" y="-13.911" width="165.625" height="165.625" style="fill:#fedd00;"/></g><clipPath id="_clip2"><path d="M119.71,49.677l-10.64,-9.08c-0.94,-0.801 -2.222,-0.98 -3.347,-0.465c-1.124,0.515 -1.822,1.6 -1.822,2.832l-0,2.846l-11.486,-0c-6.917,-0 -12.524,5.582 -12.524,12.468l-0,4.033c0.093,0.18 0.182,0.363 0.263,0.55c1.084,-0.426 2.249,-0.648 3.448,-0.648c2.51,0 4.869,0.973 6.643,2.74l2.17,2.16l0,-8.835l11.486,0l-0,2.846c-0,1.232 0.698,2.317 1.822,2.832c0.426,0.195 0.874,0.29 1.318,0.29c0.728,0 1.444,-0.257 2.028,-0.755l10.641,-9.08c0.695,-0.593 1.094,-1.456 1.094,-2.367c-0,-0.911 -0.399,-1.774 -1.094,-2.367Z" clip-rule="nonzero"/></clipPath><g clip-path="url(#_clip2)"><rect x="64.266" y="24.217" width="72.163" height="58.522" style="fill:#fff;"/></g><clipPath id="_clip3"><path d="M51.13,62.213c1.2,0 2.365,0.222 3.448,0.648c0.082,-0.187 0.17,-0.37 0.264,-0.55l-0,-4.033c-0,-6.886 -5.608,-12.468 -12.525,-12.468l-11.485,-0l-0,-2.846c-0,-1.232 -0.699,-2.317 -1.823,-2.832c-1.125,-0.515 -2.406,-0.336 -3.346,0.465l-10.641,9.08c-0.695,0.593 -1.093,1.456 -1.093,2.367c-0,0.911 0.398,1.774 1.093,2.367l10.641,9.08c0.584,0.498 1.3,0.756 2.028,0.756c0.444,-0 0.892,-0.096 1.318,-0.291c1.124,-0.515 1.822,-1.6 1.822,-2.832l0,-2.846l11.486,0l0,8.835l2.171,-2.161c1.774,-1.766 4.133,-2.739 6.642,-2.739Z" clip-rule="nonzero"/></clipPath><g clip-path="url(#_clip3)"><rect x="-1.696" y="24.217" width="72.163" height="58.521" style="fill:#fff;"/></g><clipPath id="_clip4"><path d="M71.541,57.239c0.717,0 1.416,0.081 2.087,0.233l0,-23.305l2.859,0c1.237,0 2.327,-0.695 2.844,-1.814c0.517,-1.12 0.338,-2.396 -0.467,-3.331l-9.12,-10.594c-0.596,-0.692 -1.463,-1.089 -2.378,-1.089c-0.915,0 -1.782,0.397 -2.377,1.089l-9.121,10.593c-0.805,0.936 -0.984,2.212 -0.467,3.332c0.517,1.119 1.607,1.814 2.844,1.814l2.859,0l-0,23.305c0.671,-0.152 1.37,-0.233 2.087,-0.233l8.35,0l-0,0Z" clip-rule="nonzero"/></clipPath><g clip-path="url(#_clip4)"><rect x="39.484" y="1.714" width="55.764" height="71.383" style="fill:#fff;"/></g><clipPath id="_clip5"><path d="M94.515,86.624l-0.995,-0c-0.584,-2.102 -1.418,-4.112 -2.494,-6.014l0.706,-0.705c0.587,-0.588 0.917,-1.385 0.917,-2.215c0,-0.831 -0.33,-1.628 -0.917,-2.215l-5.907,-5.907c-0.587,-0.588 -1.384,-0.918 -2.215,-0.918c-0.831,0 -1.628,0.33 -2.215,0.918l-0.705,0.705c-1.902,-1.076 -3.913,-1.91 -6.014,-2.493l-0,-0.996c-0,-1.73 -1.403,-3.132 -3.133,-3.132l-8.353,-0c-1.73,-0 -3.133,1.402 -3.133,3.132l0,0.996c-2.102,0.583 -4.112,1.417 -6.014,2.493l-0.705,-0.705c-0.587,-0.588 -1.384,-0.918 -2.215,-0.918c-0.831,-0 -1.628,0.33 -2.215,0.918l-5.907,5.907c-0.587,0.587 -0.917,1.384 -0.917,2.214c-0,0.831 0.33,1.628 0.917,2.215l0.705,0.705c-1.076,1.902 -1.909,3.913 -2.493,6.015l-0.996,-0c-1.73,-0 -3.132,1.402 -3.132,3.132l-0,8.354c-0,1.73 1.402,3.132 3.132,3.132l0.995,0c0.584,2.102 1.418,4.112 2.494,6.014l-0.705,0.706c-0.588,0.587 -0.918,1.384 -0.918,2.214c-0,0.831 0.33,1.628 0.917,2.215l5.907,5.907c0.588,0.588 1.384,0.918 2.215,0.918c0.831,-0 1.628,-0.33 2.215,-0.918l0.705,-0.705c1.903,1.076 3.913,1.91 6.015,2.493l-0,0.996c-0,1.73 1.402,3.132 3.132,3.132l8.354,0c1.73,0 3.132,-1.402 3.132,-3.132l0,-0.995c2.102,-0.584 4.112,-1.418 6.015,-2.493l0.704,0.705c0.588,0.587 1.385,0.917 2.215,0.917c0.831,0 1.628,-0.33 2.215,-0.917l5.907,-5.907c0.588,-0.587 0.918,-1.384 0.918,-2.215c-0,-0.831 -0.33,-1.628 -0.918,-2.215l-0.705,-0.705c1.076,-1.902 1.91,-3.913 2.493,-6.014l0.996,-0c1.73,-0 3.132,-1.403 3.132,-3.133l0,-8.353c0,-1.731 -1.402,-3.133 -3.132,-3.133Zm-27.147,17.751l-0.002,-0c-5.767,-0 -10.442,-4.675 -10.442,-10.442c0,-5.767 4.675,-10.442 10.442,-10.442l0.002,0c5.766,0 10.441,4.675 10.441,10.442c0,5.767 -4.675,10.442 -10.441,10.442Z" clip-rule="nonzero"/></clipPath><g clip-path="url(#_clip5)"><rect x="21.46" y="48.027" width="91.813" height="91.813" style="fill:#fff;"/></g></svg>