<?xml version="1.0" encoding="UTF-8" standalone="no"?><!DOCTYPE svg PUBLIC "-//W3C//DTD SVG 1.1//EN" "http://www.w3.org/Graphics/SVG/1.1/DTD/svg11.dtd"><svg width="100%" height="100%" viewBox="0 0 138 138" version="1.1" xmlns="http://www.w3.org/2000/svg" xmlns:xlink="http://www.w3.org/1999/xlink" xml:space="preserve" xmlns:serif="http://www.serif.com/" style="fill-rule:evenodd;clip-rule:evenodd;stroke-linejoin:round;stroke-miterlimit:2;"><clipPath id="_clip1"><path d="M15.532,1.714l106.55,0c7.683,0 13.912,6.229 13.912,13.913l0,106.55c0,7.684 -6.229,13.912 -13.912,13.912l-106.55,0c-7.684,0 -13.913,-6.228 -13.913,-13.912l0,-106.55c0,-7.684 6.229,-13.913 13.913,-13.913Z" clip-rule="nonzero"/></clipPath><g clip-path="url(#_clip1)"><rect x="-14.006" y="-13.911" width="165.625" height="165.625" style="fill:#e21a1a;"/></g><clipPath id="_clip2"><path d="M70.4,50.839c-8.374,0 -15.187,-6.768 -15.187,-15.087c-0,-8.33 6.8,-15.288 15.187,-15.288c8.387,0 15.188,6.956 15.188,15.288c-0,8.319 -6.813,15.087 -15.188,15.087Z" clip-rule="nonzero"/></clipPath><g clip-path="url(#_clip2)"><rect x="39.588" y="4.839" width="61.625" height="61.625" style="fill:#fff;"/></g><clipPath id="_clip3"><path d="M92.338,74.464l-42.188,0l0,-2.953c0,-11.398 9.463,-20.672 21.094,-20.672c11.631,0 21.094,9.274 21.094,20.672l-0,2.953Z" clip-rule="nonzero"/></clipPath><g clip-path="url(#_clip3)"><rect x="34.525" y="35.214" width="73.438" height="54.875" style="fill:#fff;"/></g><clipPath id="_clip4"><path d="M70.4,123.402l-20.231,-17.78l11.043,0l0,-6.379l-23.48,-0l0,10.21l-19.644,-19.182l19.644,-19.182l0,10.211l65.337,-0l-0,-10.211l19.644,19.182l-19.644,19.182l-0,-10.211l-23.481,0l0,6.38l11.044,0l-20.232,17.78Z" clip-rule="nonzero"/></clipPath><g clip-path="url(#_clip4)"><rect x="2.463" y="55.464" width="135.875" height="83.563" style="fill:#fff;"/></g></svg>