<?xml version="1.0" encoding="UTF-8" standalone="no"?><!DOCTYPE svg PUBLIC "-//W3C//DTD SVG 1.1//EN" "http://www.w3.org/Graphics/SVG/1.1/DTD/svg11.dtd"><svg width="100%" height="100%" viewBox="0 0 138 138" version="1.1" xmlns="http://www.w3.org/2000/svg" xmlns:xlink="http://www.w3.org/1999/xlink" xml:space="preserve" xmlns:serif="http://www.serif.com/" style="fill-rule:evenodd;clip-rule:evenodd;stroke-miterlimit:10;"><clipPath id="_clip1"><path d="M16.354,1.667l104.81,-0c8.164,-0 14.783,6.618 14.783,14.782l-0,104.811c-0,8.164 -6.619,14.782 -14.783,14.782l-104.81,-0c-8.164,-0 -14.782,-6.618 -14.782,-14.782l-0,-104.811c-0,-8.164 6.618,-14.782 14.782,-14.782Z" clip-rule="nonzero"/></clipPath><g clip-path="url(#_clip1)"><rect x="-14.053" y="-13.958" width="165.625" height="165.625" style="fill:#074d0c;"/></g><clipPath id="_clip2"><path d="M101.595,50.061l-54.653,0c-5.064,0 -9.204,-4.134 -9.204,-9.232c-0,-5.079 4.121,-9.231 9.204,-9.231l54.671,-0c1.368,-0 2.459,-1.112 2.459,-2.466c-0,-1.372 -1.109,-2.465 -2.459,-2.465l-54.671,-0c-7.781,-0 -14.12,6.358 -14.12,14.162l-0,61.675c-0,7.804 6.339,14.163 14.12,14.163l54.671,-0c1.368,-0 2.459,-1.112 2.459,-2.466l-0,-61.674c-0.019,-1.354 -1.109,-2.466 -2.477,-2.466Zm-2.458,61.675l-52.195,-0c-5.064,-0 -9.204,-4.134 -9.204,-9.232l-0,-50.923c2.477,2.132 5.692,3.43 9.204,3.43l52.195,-0l-0,56.725Z" clip-rule="nonzero"/></clipPath><g clip-path="url(#_clip2)"><rect x="17.197" y="11.042" width="102.5" height="121.25" style="fill:#fff;"/></g><path d="M101.595,50.061l-54.653,0c-5.064,0 -9.204,-4.134 -9.204,-9.232c-0,-5.079 4.121,-9.231 9.204,-9.231l54.671,-0c1.368,-0 2.459,-1.112 2.459,-2.466c-0,-1.372 -1.109,-2.465 -2.459,-2.465l-54.671,-0c-7.781,-0 -14.12,6.358 -14.12,14.162l-0,61.675c-0,7.804 6.339,14.163 14.12,14.163l54.671,-0c1.368,-0 2.459,-1.112 2.459,-2.466l-0,-61.674c-0.019,-1.354 -1.109,-2.466 -2.477,-2.466Zm-2.458,61.675l-52.195,-0c-5.064,-0 -9.204,-4.134 -9.204,-9.232l-0,-50.923c2.477,2.132 5.692,3.43 9.204,3.43l52.195,-0l-0,56.725Z" style="fill:none;fill-rule:nonzero;stroke:#fff;stroke-width:5.63px;"/><clipPath id="_clip3"><path d="M56.906,99.647c0.266,0.09 0.532,0.145 0.798,0.145c0.974,-0 1.878,-0.616 2.215,-1.594l2.87,-8.204l11.058,-0c0.088,-0 0.195,-0 0.283,-0.019l2.871,8.223c0.336,0.978 1.258,1.594 2.215,1.594c0.266,-0 0.531,-0.055 0.797,-0.145c1.223,-0.453 1.861,-1.829 1.418,-3.079l-10.739,-30.771c-0.017,-0.073 -0.053,-0.145 -0.088,-0.218l-0.106,-0.217c-0.018,-0.036 -0.054,-0.072 -0.071,-0.127c-0.018,-0.018 -0.036,-0.054 -0.053,-0.072c-0.018,-0.036 -0.054,-0.073 -0.089,-0.109c-0.018,-0.018 -0.036,-0.054 -0.071,-0.072c-0.018,-0.036 -0.053,-0.055 -0.089,-0.091c-0.035,-0.036 -0.053,-0.054 -0.088,-0.09c-0.018,-0.018 -0.053,-0.037 -0.071,-0.073c-0.035,-0.036 -0.071,-0.054 -0.106,-0.09c-0.018,-0.018 -0.054,-0.037 -0.071,-0.055c-0.036,-0.018 -0.071,-0.054 -0.107,-0.072l-0.212,-0.109c-0.071,-0.036 -0.142,-0.072 -0.213,-0.09l-0.018,-0c-0.07,-0.018 -0.141,-0.037 -0.212,-0.055c-0.036,0 -0.053,-0.018 -0.089,-0.018c-0.053,-0.018 -0.088,-0.018 -0.142,-0.036c-0.035,-0 -0.07,-0 -0.106,-0.018c-0.035,-0 -0.088,-0.018 -0.124,-0.018l-0.23,-0c-0.036,-0 -0.089,-0 -0.124,0.018c-0.036,-0 -0.071,-0 -0.107,0.018c-0.053,-0 -0.088,0.018 -0.141,0.036c-0.036,0 -0.054,0.018 -0.089,0.018c-0.071,0.018 -0.142,0.037 -0.195,0.055l-0.018,-0c-0.071,0.018 -0.141,0.054 -0.212,0.09l-0.213,0.109c-0.035,0.018 -0.071,0.054 -0.124,0.072c-0.018,0.018 -0.053,0.037 -0.071,0.055c-0.035,0.036 -0.071,0.054 -0.106,0.09c-0.018,0.018 -0.053,0.036 -0.071,0.073l-0.177,0.181c-0.018,0.018 -0.036,0.054 -0.071,0.072c-0.036,0.036 -0.053,0.073 -0.089,0.109c-0.017,0.018 -0.035,0.054 -0.053,0.072c-0.018,0.037 -0.053,0.073 -0.071,0.109l-0.106,0.217c-0.035,0.073 -0.071,0.145 -0.089,0.218l-10.773,30.771c-0.39,1.268 0.248,2.644 1.47,3.097Zm11.571,-25.881l3.987,11.41l-7.991,-0l4.004,-11.41Z" clip-rule="nonzero"/></clipPath><g clip-path="url(#_clip3)"><rect x="39.697" y="48.542" width="57.5" height="66.875" style="fill:#fff;"/></g><path d="M56.906,99.647c0.266,0.09 0.532,0.145 0.798,0.145c0.974,-0 1.878,-0.616 2.215,-1.594l2.87,-8.204l11.058,-0c0.088,-0 0.195,-0 0.283,-0.019l2.871,8.223c0.336,0.978 1.258,1.594 2.215,1.594c0.266,-0 0.531,-0.055 0.797,-0.145c1.223,-0.453 1.861,-1.829 1.418,-3.079l-10.739,-30.771c-0.017,-0.073 -0.053,-0.145 -0.088,-0.218l-0.106,-0.217c-0.018,-0.036 -0.054,-0.072 -0.071,-0.127c-0.018,-0.018 -0.036,-0.054 -0.053,-0.072c-0.018,-0.036 -0.054,-0.073 -0.089,-0.109c-0.018,-0.018 -0.036,-0.054 -0.071,-0.072c-0.018,-0.036 -0.053,-0.055 -0.089,-0.091c-0.035,-0.036 -0.053,-0.054 -0.088,-0.09c-0.018,-0.018 -0.053,-0.037 -0.071,-0.073c-0.035,-0.036 -0.071,-0.054 -0.106,-0.09c-0.018,-0.018 -0.053,-0.037 -0.071,-0.055c-0.036,-0.018 -0.071,-0.054 -0.107,-0.072l-0.212,-0.109c-0.071,-0.036 -0.142,-0.072 -0.213,-0.09l-0.018,-0c-0.07,-0.018 -0.141,-0.037 -0.212,-0.055c-0.036,0 -0.053,-0.018 -0.089,-0.018c-0.053,-0.018 -0.088,-0.018 -0.142,-0.036c-0.035,-0 -0.07,-0 -0.106,-0.018c-0.035,-0 -0.088,-0.018 -0.124,-0.018l-0.23,-0c-0.036,-0 -0.089,-0 -0.124,0.018c-0.036,-0 -0.071,-0 -0.107,0.018c-0.053,-0 -0.088,0.018 -0.141,0.036c-0.036,0 -0.054,0.018 -0.089,0.018c-0.071,0.018 -0.142,0.037 -0.195,0.055l-0.018,-0c-0.07,0.018 -0.141,0.054 -0.212,0.09l-0.213,0.109c-0.035,0.018 -0.071,0.054 -0.124,0.072c-0.018,0.018 -0.053,0.037 -0.071,0.055c-0.035,0.036 -0.071,0.054 -0.106,0.09c-0.018,0.018 -0.053,0.036 -0.071,0.073l-0.177,0.181c-0.018,0.018 -0.036,0.054 -0.071,0.072c-0.036,0.036 -0.053,0.073 -0.089,0.109c-0.017,0.018 -0.035,0.054 -0.053,0.072c-0.018,0.037 -0.053,0.073 -0.071,0.109l-0.106,0.217c-0.035,0.073 -0.071,0.145 -0.089,0.218l-10.773,30.771c-0.39,1.268 0.248,2.644 1.47,3.097Zm11.572,-25.881l3.986,11.41l-7.991,-0l4.005,-11.41Z" style="fill:none;fill-rule:nonzero;stroke:#fff;stroke-width:1.88px;"/></svg>