<?xml version="1.0" encoding="UTF-8" standalone="no"?><!DOCTYPE svg PUBLIC "-//W3C//DTD SVG 1.1//EN" "http://www.w3.org/Graphics/SVG/1.1/DTD/svg11.dtd"><svg width="100%" height="100%" viewBox="0 0 138 138" version="1.1" xmlns="http://www.w3.org/2000/svg" xmlns:xlink="http://www.w3.org/1999/xlink" xml:space="preserve" xmlns:serif="http://www.serif.com/" style="fill-rule:evenodd;clip-rule:evenodd;stroke-miterlimit:10;"><clipPath id="_clip1"><path d="M15.675,1.619l106.55,0c7.683,0 13.912,6.229 13.912,13.913l0,106.55c0,7.683 -6.229,13.912 -13.912,13.912l-106.55,0c-7.684,0 -13.913,-6.229 -13.913,-13.912l0,-106.55c0,-7.684 6.229,-13.913 13.913,-13.913Z" clip-rule="nonzero"/></clipPath><g clip-path="url(#_clip1)"><rect x="-13.863" y="-14.006" width="165.625" height="165.625" style="fill:#00649c;"/></g><clipPath id="_clip2"><path d="M63.502,94.227l-0,6.447c-0,2.079 1.714,3.77 3.82,3.77c2.104,0 3.816,-1.686 3.821,-3.762l0,-12.903c0,-2.025 -1.626,-3.683 -3.657,-3.767c-0.155,0.003 -30.117,-0.003 -30.117,-0.003l0,27.721c0,2.079 1.714,3.77 3.821,3.77c2.106,0 3.818,-1.688 3.821,-3.764l0,-4.615c0,-0.002 0.001,-0.004 0.001,-0.006l-0,-12.888c-0,-1.479 1.214,-2.677 2.712,-2.677l13.066,0c1.497,0 2.712,1.198 2.712,2.677Z"/></clipPath><g clip-path="url(#_clip2)"><rect x="21.744" y="68.384" width="65.024" height="62.742" style="fill:#fff;"/></g><path d="M63.502,94.227l-0,6.447c-0,2.079 1.714,3.771 3.82,3.771c2.104,-0 3.816,-1.687 3.821,-3.763l0,-12.903c0,-2.025 -1.626,-3.683 -3.657,-3.767c-0.155,0.003 -30.117,-0.003 -30.117,-0.003l0,27.721c0,2.079 1.714,3.77 3.821,3.77c2.106,0 3.818,-1.688 3.821,-3.764l0,-4.615c0,-0.002 0.001,-0.004 0.001,-0.006l-0,-12.888c-0,-1.479 1.214,-2.677 2.712,-2.677l13.066,0c1.497,0 2.712,1.198 2.712,2.677Z" style="fill:none;fill-rule:nonzero;stroke:#fff;stroke-width:2.16px;"/><clipPath id="_clip3"><path d="M48.053,43.419c5.511,0 9.994,-4.394 9.994,-9.797c0,-5.403 -4.483,-9.798 -9.994,-9.798c-5.511,0 -9.994,4.395 -9.994,9.798c-0,5.403 4.483,9.797 9.994,9.797Z"/></clipPath><g clip-path="url(#_clip3)"><rect x="22.434" y="8.199" width="51.239" height="50.845" style="fill:#fff;"/></g><ellipse cx="48.053" cy="33.622" rx="9.994" ry="9.797" style="fill:none;stroke:#fff;stroke-width:2.16px;"/><clipPath id="_clip4"><path d="M37.463,64.492l-0,13.913l20.49,0l0,-13.913c0,-1.077 0.654,-2.048 1.656,-2.46c1.003,-0.411 2.158,-0.184 2.925,0.577l3.787,3.756c0.503,0.499 0.786,1.177 0.786,1.882c0,0.706 -0.283,1.383 -0.786,1.882l-1.894,1.879c-0.703,0.697 -1.095,1.621 -1.107,2.606l0,0.091c0.012,0.985 0.404,1.909 1.107,2.606c0.669,0.663 1.544,1.048 2.481,1.094l0.193,0c0.054,0 0.108,0.001 0.162,0.002c0.949,-0.04 1.836,-0.425 2.511,-1.096l6.465,-6.412c0.714,-0.708 1.108,-1.65 1.108,-2.651c-0,-1.002 -0.394,-1.944 -1.108,-2.652l-11.787,-11.691c-2.624,-2.603 -8.183,-4.887 -11.896,-4.887l-9.696,-0c-3.713,-0 -9.272,2.284 -11.897,4.887l-11.786,11.691c-0.714,0.708 -1.107,1.65 -1.107,2.652c-0,1.002 0.393,1.943 1.107,2.651l6.465,6.412c0.713,0.709 1.663,1.099 2.673,1.099c1.01,0 1.959,-0.39 2.673,-1.099c0.71,-0.703 1.103,-1.638 1.108,-2.633l-0,-0.037c-0.005,-0.994 -0.398,-1.929 -1.107,-2.632l-1.894,-1.88c-0.504,-0.499 -0.786,-1.176 -0.786,-1.881c-0,-0.706 0.283,-1.384 0.786,-1.883l3.787,-3.755c0.768,-0.761 1.921,-0.989 2.924,-0.578c1.003,0.413 1.657,1.383 1.657,2.46Z"/></clipPath><g clip-path="url(#_clip4)"><rect x="2.445" y="33.393" width="90.527" height="60.642" style="fill:#fff;"/></g><clipPath id="_clip5"><path d="M105.269,70.712l-2.926,0c-2.46,0 -4.472,2.03 -4.472,4.511l-0,12.341c-0,1.495 -1.202,2.707 -2.684,2.707l-14.391,-0c-2.46,-0 -4.472,2.029 -4.473,4.509l-0,12.247c-0,1.495 -1.201,2.706 -2.684,2.706l-20.489,0c-2.46,0 -2.684,1.298 -2.685,2.884c0,1.586 0.224,2.883 2.684,2.883l51.196,0c2.976,0 5.397,-2.441 5.397,-5.442l-0,-34.835c-0,-2.481 -2.013,-4.511 -4.473,-4.511Z"/></clipPath><g clip-path="url(#_clip5)"><rect x="34.84" y="55.087" width="90.527" height="76.038" style="fill:#fff;"/></g></svg>