<?xml version="1.0" encoding="UTF-8" standalone="no"?><!DOCTYPE svg PUBLIC "-//W3C//DTD SVG 1.1//EN" "http://www.w3.org/Graphics/SVG/1.1/DTD/svg11.dtd"><svg width="100%" height="100%" viewBox="0 0 138 138" version="1.1" xmlns="http://www.w3.org/2000/svg" xmlns:xlink="http://www.w3.org/1999/xlink" xml:space="preserve" xmlns:serif="http://www.serif.com/" style="fill-rule:evenodd;clip-rule:evenodd;stroke-linejoin:round;stroke-miterlimit:2;"><clipPath id="_clip1"><path d="M16.496,1.524l104.811,-0c8.164,-0 14.782,6.618 14.782,14.782l0,104.811c0,8.164 -6.618,14.782 -14.782,14.782l-104.811,-0c-8.163,-0 -14.782,-6.618 -14.782,-14.782l0,-104.811c0,-8.164 6.619,-14.782 14.782,-14.782Z" clip-rule="nonzero"/></clipPath><g clip-path="url(#_clip1)"><rect x="-13.911" y="-14.101" width="165.625" height="165.625" style="fill:#fedd00;"/></g><clipPath id="_clip2"><path d="M69.06,56.223c10.856,0 19.688,-8.411 19.688,-18.75c-0,-10.338 -8.832,-18.75 -19.688,-18.75c-10.856,0 -19.687,8.412 -19.687,18.75c-0,10.339 8.831,18.75 19.687,18.75Z" clip-rule="nonzero"/></clipPath><g clip-path="url(#_clip2)"><rect x="33.748" y="3.098" width="70.625" height="68.75" style="fill:#fff;"/></g><clipPath id="_clip3"><path d="M96.269,65.853c-0.009,-0.003 -0.025,-0.009 -0.033,-0.011c-2.569,-0.647 -10.436,-1.781 -10.436,-1.781c-0.888,-0.281 -1.837,0.203 -2.156,1.106l-11.841,33.472c-0.683,1.931 -3.334,1.931 -4.017,-0l-11.841,-33.472c-0.258,-0.729 -0.926,-1.186 -1.641,-1.186c-0.17,-0 -8.258,1.168 -10.951,1.858c-7.358,1.885 -11.999,9.34 -11.999,17.109l-0,27.851c-0,4.173 3.284,7.557 7.335,7.557l62.204,-0c4.051,-0 7.336,-3.384 7.336,-7.557l-0,-27.944c-0,-7.735 -4.824,-14.6 -11.96,-17.002Z" clip-rule="nonzero"/></clipPath><g clip-path="url(#_clip3)"><rect x="15.729" y="48.356" width="108.125" height="85.625" style="fill:#fff;"/></g><clipPath id="_clip4"><path d="M74.73,64.261c-0.607,-0.48 -1.494,-0.721 -2.392,-0.721l-6.693,0c-0.898,0 -1.785,0.241 -2.392,0.721c-0.939,0.742 -1.076,1.814 -0.409,2.652l3.579,3.912l-1.675,10.247l3.298,6.363c0.322,0.64 1.57,0.64 1.892,-0l3.298,-6.363l-1.675,-10.247l3.579,-3.912c0.666,-0.838 0.529,-1.91 -0.41,-2.652Z" clip-rule="nonzero"/></clipPath><g clip-path="url(#_clip4)"><rect x="46.804" y="47.915" width="44.375" height="55.625" style="fill:#fff;"/></g></svg>