<?xml version="1.0" encoding="UTF-8" standalone="no"?><!DOCTYPE svg PUBLIC "-//W3C//DTD SVG 1.1//EN" "http://www.w3.org/Graphics/SVG/1.1/DTD/svg11.dtd"><svg width="100%" height="100%" viewBox="0 0 138 138" version="1.1" xmlns="http://www.w3.org/2000/svg" xmlns:xlink="http://www.w3.org/1999/xlink" xml:space="preserve" xmlns:serif="http://www.serif.com/" style="fill-rule:evenodd;clip-rule:evenodd;stroke-linejoin:round;stroke-miterlimit:2;"><clipPath id="_clip1"><path d="M16.354,1.762l104.81,0c8.164,0 14.783,6.618 14.783,14.782l-0,104.811c-0,8.164 -6.619,14.782 -14.783,14.782l-104.81,0c-8.164,0 -14.782,-6.618 -14.782,-14.782l-0,-104.811c-0,-8.164 6.618,-14.782 14.782,-14.782Z" clip-rule="nonzero"/></clipPath><g clip-path="url(#_clip1)"><rect x="-14.053" y="-13.863" width="165.625" height="165.625" style="fill:#e21a1a;"/></g><clipPath id="_clip2"><path d="M110.651,43.658l-35.707,0l-2.684,5.25l41.075,0l-2.684,-5.25Z" clip-rule="nonzero"/></clipPath><g clip-path="url(#_clip2)"><rect x="56.635" y="28.033" width="72.325" height="36.5" style="fill:#fff;"/></g><clipPath id="_clip3"><path d="M71.235,54.158l-0,15.75l5.824,0c0.744,-2.071 2.359,-3.778 4.519,-4.65c2.901,-1.177 6.399,-0.624 8.776,1.712l10.731,10.495c3.14,3.071 3.14,8.065 0,11.136l-10.736,10.5c-2.381,2.329 -5.879,2.898 -8.802,1.697c-2.139,-0.864 -3.743,-2.571 -4.488,-4.64l-5.824,0l-0,7.875c-0,1.451 1.2,2.625 2.684,2.625l37.757,0c1.483,0 2.684,-1.174 2.684,-2.625l-0,-49.875l-43.125,0Z" clip-rule="nonzero"/></clipPath><g clip-path="url(#_clip3)"><rect x="55.61" y="38.533" width="74.375" height="83.75" style="fill:#fff;"/></g><clipPath id="_clip4"><path d="M108.991,38.408l0,-7.875c0,-1.451 -1.2,-2.625 -2.684,-2.625l-27.02,0c-1.484,0 -2.684,1.174 -2.684,2.625l-0,7.875l32.388,0Z" clip-rule="nonzero"/></clipPath><g clip-path="url(#_clip4)"><rect x="60.978" y="12.283" width="63.638" height="41.75" style="fill:#fff;"/></g><clipPath id="_clip5"><path d="M61.893,48.666l0,-8.004c0,-1.475 -1.2,-2.669 -2.684,-2.669l-27.02,0c-1.484,0 -2.684,1.194 -2.684,2.669l-0,8.004l32.388,0Z" clip-rule="nonzero"/></clipPath><g clip-path="url(#_clip5)"><rect x="13.88" y="22.368" width="63.638" height="41.923" style="fill:#fff;"/></g><clipPath id="_clip6"><path d="M63.552,54.003l-35.706,-0l-2.684,5.336l41.075,0l-2.685,-5.336Z" clip-rule="nonzero"/></clipPath><g clip-path="url(#_clip6)"><rect x="9.537" y="38.378" width="72.325" height="36.587" style="fill:#fff;"/></g><clipPath id="_clip7"><path d="M53.841,70.012l13.421,0l-0,-5.336l-43.125,-0l-0,40.024c-0,1.475 1.2,2.668 2.684,2.668l37.756,0c1.484,0 2.685,-1.193 2.685,-2.668l-0,-8.005l-13.421,0c-4.44,0 -8.052,-3.591 -8.052,-8.005l-0,-10.673c-0,-4.414 3.612,-8.005 8.052,-8.005Z" clip-rule="nonzero"/></clipPath><g clip-path="url(#_clip7)"><rect x="8.512" y="49.051" width="74.375" height="73.942" style="fill:#fff;"/></g><clipPath id="_clip8"><path d="M83.876,96.057c-0.933,-0.405 -1.543,-1.364 -1.543,-2.425l-0,-2.625l-27.5,-0c-1.382,-0 -2.5,-1.174 -2.5,-2.625l-0,-10.501c-0,-1.451 1.118,-2.625 2.5,-2.625l27.5,0l-0,-2.625c-0,-1.061 0.61,-2.02 1.543,-2.425c0.932,-0.403 2.011,-0.182 2.724,0.569l10,10.501c0.977,1.025 0.977,2.686 0,3.712l-10,10.5c-0.726,0.763 -1.815,0.971 -2.724,0.569Z" clip-rule="nonzero"/></clipPath><g clip-path="url(#_clip8)"><rect x="36.708" y="54.383" width="76.25" height="57.5" style="fill:#fff;"/></g></svg>