<?xml version="1.0" encoding="UTF-8" standalone="no"?><!DOCTYPE svg PUBLIC "-//W3C//DTD SVG 1.1//EN" "http://www.w3.org/Graphics/SVG/1.1/DTD/svg11.dtd"><svg width="100%" height="100%" viewBox="0 0 138 138" version="1.1" xmlns="http://www.w3.org/2000/svg" xmlns:xlink="http://www.w3.org/1999/xlink" xml:space="preserve" xmlns:serif="http://www.serif.com/" style="fill-rule:evenodd;clip-rule:evenodd;stroke-linejoin:round;stroke-miterlimit:2;"><clipPath id="_clip1"><path d="M16.401,1.572l104.811,-0c8.164,-0 14.782,6.618 14.782,14.782l0,104.81c0,8.164 -6.618,14.783 -14.782,14.783l-104.811,-0c-8.164,-0 -14.782,-6.619 -14.782,-14.783l0,-104.81c0,-8.164 6.618,-14.782 14.782,-14.782Z" clip-rule="nonzero"/></clipPath><g clip-path="url(#_clip1)"><rect x="-14.006" y="-14.053" width="165.625" height="165.625" style="fill:#ff6f12;"/></g><clipPath id="_clip2"><path d="M90.175,106.046l7.092,7.093l12.794,-12.794l-7.092,-7.093l0.723,-1.208c1.98,-3.34 3.478,-6.943 4.449,-10.703l0.347,-1.354l10.006,-0l0,-18.081l-10.006,0l-0.35,-1.354c-0.971,-3.76 -2.469,-7.364 -4.45,-10.703l-0.723,-1.208l7.093,-7.093l-12.791,-12.794l-7.092,7.093l-1.208,-0.723c-3.34,-1.981 -6.943,-3.478 -10.703,-4.45l-1.355,-0.346l0,-10.006l-18.08,-0l-0,10.006l-1.354,0.35c-3.76,0.971 -7.364,2.468 -10.704,4.449l-1.207,0.723l-7.093,-7.096l-12.794,12.794l7.093,7.093l-0.723,1.208c-1.981,3.339 -3.479,6.943 -4.45,10.703l-0.347,1.354l-10.006,0l0,18.081l10.006,-0l0.351,1.354c0.971,3.76 2.469,7.363 4.449,10.703l0.723,1.208l-7.096,7.093l12.794,12.794l7.093,-7.093l1.207,0.723c3.34,1.981 6.944,3.478 10.704,4.45l1.354,0.35l-0,10.003l18.08,-0l0,-10.006l1.355,-0.351c3.76,-0.971 7.363,-2.468 10.703,-4.449l1.208,-0.72Zm-18.004,-11.144l0,0.065l-1.26,0.152l-1.607,0.202l0,-0.062c-0.473,0.027 -0.949,0.043 -1.434,0.043c-2.43,0.001 -4.847,-0.364 -7.168,-1.083l-0,0.097l-1.972,-0.795l-0.008,-0l-0.888,-0.368l0,-0.033c-10.98,-4.961 -16.684,-17.196 -13.42,-28.788c3.263,-11.591 14.513,-19.06 26.471,-17.573c11.958,1.486 21.034,11.481 21.356,23.519c0.322,12.037 -8.208,22.502 -20.07,24.624Z" clip-rule="nonzero"/></clipPath><g clip-path="url(#_clip2)"><rect x="1.619" y="4.697" width="132.5" height="132.5" style="fill:#fff;"/></g></svg>