<?xml version="1.0" encoding="UTF-8" standalone="no"?><!DOCTYPE svg PUBLIC "-//W3C//DTD SVG 1.1//EN" "http://www.w3.org/Graphics/SVG/1.1/DTD/svg11.dtd"><svg width="100%" height="100%" viewBox="0 0 138 138" version="1.1" xmlns="http://www.w3.org/2000/svg" xmlns:xlink="http://www.w3.org/1999/xlink" xml:space="preserve" xmlns:serif="http://www.serif.com/" style="fill-rule:evenodd;clip-rule:evenodd;stroke-linejoin:round;stroke-miterlimit:2;"><clipPath id="_clip1"><path d="M16.639,1.429l104.811,-0c8.164,-0 14.782,6.618 14.782,14.782l0,104.811c0,8.164 -6.618,14.782 -14.782,14.782l-104.811,-0c-8.164,-0 -14.782,-6.618 -14.782,-14.782l0,-104.811c0,-8.164 6.618,-14.782 14.782,-14.782Z" clip-rule="nonzero"/></clipPath><g clip-path="url(#_clip1)"><rect x="-13.768" y="-14.196" width="165.625" height="165.625" style="fill:#00649c;"/></g><clipPath id="_clip2"><path d="M99.543,39.652l-47.558,0c-1.473,0 -2.667,-1.239 -2.667,-2.767l-0,-1.385c-0,-1.558 -1.218,-2.821 -2.72,-2.821l-14.301,-0c-3.004,-0 -5.44,2.526 -5.44,5.643l0,47.482l6.98,-35.226c0.255,-1.287 1.346,-2.21 2.613,-2.21l68.532,-0l0,-3.073c0,-3.116 -2.435,-5.643 -5.439,-5.643Z" clip-rule="nonzero"/></clipPath><g clip-path="url(#_clip2)"><rect x="11.232" y="17.054" width="109.375" height="84.375" style="fill:#fff;"/></g><clipPath id="_clip3"><path d="M109.499,54.554l-66.968,-0l-9.373,47.012c-0.308,1.543 0.835,2.988 2.362,2.988l69.688,-0c2.476,-0 4.556,-1.92 4.829,-4.458l4.29,-39.984c0.318,-2.966 -1.934,-5.558 -4.828,-5.558Z" clip-rule="nonzero"/></clipPath><g clip-path="url(#_clip3)"><rect x="17.482" y="38.929" width="112.5" height="81.25" style="fill:#fff;"/></g></svg>