<?xml version="1.0" encoding="UTF-8" standalone="no"?><!DOCTYPE svg PUBLIC "-//W3C//DTD SVG 1.1//EN" "http://www.w3.org/Graphics/SVG/1.1/DTD/svg11.dtd"><svg width="100%" height="100%" viewBox="0 0 138 138" version="1.1" xmlns="http://www.w3.org/2000/svg" xmlns:xlink="http://www.w3.org/1999/xlink" xml:space="preserve" xmlns:serif="http://www.serif.com/" style="fill-rule:evenodd;clip-rule:evenodd;stroke-linejoin:round;stroke-miterlimit:2;"><clipPath id="_clip1"><path d="M16.354,1.572l104.81,-0c8.164,-0 14.783,6.618 14.783,14.782l-0,104.81c-0,8.164 -6.619,14.783 -14.783,14.783l-104.81,-0c-8.164,-0 -14.782,-6.619 -14.782,-14.783l-0,-104.81c-0,-8.164 6.618,-14.782 14.782,-14.782Z" clip-rule="nonzero"/></clipPath><g clip-path="url(#_clip1)"><rect x="-14.053" y="-14.053" width="165.625" height="165.625" style="fill:#e21a1a;"/></g><clipPath id="_clip2"><path d="M113.122,109.379l-1.953,0l0,-56.074c0,-1.067 -0.875,-1.934 -1.953,-1.934l-11.719,0c-1.078,0 -1.953,0.867 -1.953,1.934l0,56.074l-7.812,0l-0,-32.871c-0,-1.067 -0.875,-1.933 -1.954,-1.933l-11.718,-0c-1.078,-0 -1.954,0.866 -1.954,1.933l0,32.871l-7.812,0l-0,-40.605c-0,-1.068 -0.875,-1.934 -1.953,-1.934l-11.719,0c-1.078,0 -1.953,0.866 -1.953,1.934l-0,40.605l-7.813,0l0,-21.269c0,-1.068 -0.875,-1.934 -1.953,-1.934l-11.718,0c-1.078,0 -1.953,0.866 -1.953,1.934l-0,21.269l-1.953,0c-1.078,0 -1.953,0.866 -1.953,1.934c-0,1.067 0.875,1.933 1.953,1.933l89.843,0c1.079,0 1.954,-0.866 1.954,-1.933c-0,-1.068 -0.875,-1.934 -1.954,-1.934Z" clip-rule="nonzero"/></clipPath><g clip-path="url(#_clip2)"><rect x="5.701" y="35.746" width="125" height="93.125" style="fill:#fff;"/></g><clipPath id="_clip3"><path d="M99.773,20.553c-4.231,-0 -7.671,3.493 -7.671,7.788c0,1.441 0.414,2.773 1.085,3.933l-12.552,12.746c-1.143,-0.681 -2.455,-1.102 -3.874,-1.102c-2.404,0 -4.529,1.153 -5.937,2.917l-9.423,-2.73c0,-0.062 0.02,-0.121 0.02,-0.187c-0,-4.295 -3.441,-7.788 -7.671,-7.788c-4.23,-0 -7.67,3.493 -7.67,7.788c-0,1.133 0.249,2.2 0.678,3.17l-11.985,9.708c-1.173,-0.747 -2.55,-1.195 -4.034,-1.195c-4.231,-0 -7.671,3.493 -7.671,7.788c0,4.296 3.44,7.789 7.671,7.789c4.23,-0 7.67,-3.493 7.67,-7.789c0,-1.367 -0.379,-2.636 -0.993,-3.754l11.747,-9.513c1.285,0.981 2.861,1.585 4.587,1.585c2.811,-0 5.251,-1.562 6.585,-3.859l8.886,2.574c-0.072,0.42 -0.13,0.845 -0.13,1.285c-0,4.295 3.44,7.788 7.67,7.788c4.231,0 7.671,-3.493 7.671,-7.788c-0,-1.441 -0.414,-2.773 -1.085,-3.933l12.556,-12.75c1.139,0.685 2.451,1.106 3.87,1.106c4.23,-0 7.67,-3.493 7.67,-7.789c0,-4.295 -3.44,-7.788 -7.67,-7.788Z" clip-rule="nonzero"/></clipPath><g clip-path="url(#_clip3)"><rect x="7.443" y="4.928" width="115.625" height="81.875" style="fill:#fff;"/></g></svg>