<?xml version="1.0" encoding="UTF-8" standalone="no"?><!DOCTYPE svg PUBLIC "-//W3C//DTD SVG 1.1//EN" "http://www.w3.org/Graphics/SVG/1.1/DTD/svg11.dtd"><svg width="100%" height="100%" viewBox="0 0 138 138" version="1.1" xmlns="http://www.w3.org/2000/svg" xmlns:xlink="http://www.w3.org/1999/xlink" xml:space="preserve" xmlns:serif="http://www.serif.com/" style="fill-rule:evenodd;clip-rule:evenodd;stroke-linejoin:round;stroke-miterlimit:2;"><clipPath id="_clip1"><path d="M15.239,1.565l106.55,-0c7.684,-0 13.913,6.229 13.913,13.912l-0,106.55c-0,7.684 -6.229,13.913 -13.913,13.913l-106.55,-0c-7.683,-0 -13.912,-6.229 -13.912,-13.913l-0,-106.55c-0,-7.683 6.229,-13.912 13.912,-13.912Z" clip-rule="nonzero"/></clipPath><g clip-path="url(#_clip1)"><rect x="-14.298" y="-14.06" width="165.625" height="165.625" style="fill:#ff6f12;"/></g><clipPath id="_clip2"><path d="M63.619,39.814c-6.031,-0.694 -11.907,3.994 -12.003,10.833c-0.095,6.699 5.403,11.547 11.281,11.351c0.136,-0.005 0.274,-0.012 0.411,-0.022l-0.079,5.588l-9.449,-0.197c-2.275,-0.047 -3.74,2.449 -2.629,4.493c0.875,1.609 0.827,3.499 -0.084,5.055c-1.95,3.333 -6.672,3.236 -8.528,-0.177c-1.547,-2.845 0.142,-5.118 0.308,-5.599c0.675,-1.954 -0.733,-4.015 -2.751,-4.057c-1.609,-0.034 -14.025,-0.293 -15.372,-0.321l0.426,-30.308c0.07,-5.014 4.114,-9.01 9.013,-8.908l29.62,0.618c-0.018,1.257 -0.146,10.401 -0.164,11.651Z"/></clipPath><g clip-path="url(#_clip2)"><path d="M103.39,65.515l-73.071,42.188l-42.187,-73.071l73.071,-42.188l42.187,73.071Z" style="fill:#fff;"/></g><clipPath id="_clip3"><path d="M102.796,29.658c5.013,0.071 9.009,4.114 8.908,9.013l-0.617,29.617c-1.256,-0.018 -10.4,-0.147 -11.65,-0.164c0.254,-2.213 -0.21,-4.454 -1.335,-6.442c-4.119,-7.286 -14.794,-7.456 -19.226,-0.272c-1.217,1.974 -1.763,4.195 -1.602,6.401l-5.588,-0.079l0.196,-9.447c0.048,-2.275 -2.449,-3.74 -4.492,-2.629c-3.337,1.813 -7.569,-0.515 -7.489,-4.384c0.081,-3.864 4.404,-6.077 7.667,-4.169c1.992,1.166 4.552,-0.223 4.599,-2.501c0.034,-1.609 0.292,-14.024 0.32,-15.371l30.309,0.427Z"/></clipPath><g clip-path="url(#_clip3)"><path d="M146.804,65.71l-73.071,42.187l-42.188,-73.071l73.071,-42.187l42.188,73.071Z" style="fill:#fff;"/></g><clipPath id="_clip4"><path d="M97.351,75.109c1.609,0.034 14.024,0.293 15.372,0.321l-0.427,30.31c-0.07,5.014 -4.114,9.01 -9.013,8.908l-29.618,-0.618c0.018,-1.255 0.147,-10.402 0.164,-11.653c2.185,0.252 4.422,-0.192 6.443,-1.334c7.287,-4.12 7.456,-14.794 0.27,-19.227c-1.987,-1.226 -4.21,-1.762 -6.401,-1.602l0.079,-5.587l9.448,0.197c2.268,0.047 3.743,-2.443 2.629,-4.493c-0.888,-1.634 -0.811,-3.527 0.084,-5.056c1.961,-3.351 6.692,-3.197 8.527,0.178c0.856,1.574 0.872,3.466 -0.058,5.056c-1.165,1.993 0.222,4.553 2.501,4.6Z"/></clipPath><g clip-path="url(#_clip4)"><path d="M149.316,107.561l-73.071,42.187l-42.188,-73.071l73.071,-42.187l42.188,73.071Z" style="fill:#fff;"/></g><clipPath id="_clip5"><path d="M75.119,86.615c3.299,1.93 3.256,6.661 -0.178,8.528c-1.582,0.86 -3.473,0.869 -5.057,-0.058c-1.992,-1.166 -4.552,0.222 -4.6,2.501c-0.033,1.606 -0.293,14.036 -0.321,15.374l-30.311,-0.425c-5.014,-0.071 -9.01,-4.114 -8.908,-9.014l0.619,-29.618c1.256,0.017 10.401,0.146 11.651,0.163c-0.251,2.185 0.192,4.422 1.334,6.443c4.124,7.295 14.799,7.449 19.227,0.27c1.227,-1.988 1.763,-4.211 1.603,-6.401l5.589,0.078l-0.197,9.446c-0.04,1.939 1.813,3.39 3.749,2.917c0.757,-0.185 2.977,-1.856 5.8,-0.204Z"/></clipPath><g clip-path="url(#_clip5)"><path d="M105.902,107.366l-73.071,42.188l-42.187,-73.071l73.071,-42.188l42.187,73.071Z" style="fill:#fff;"/></g></svg>