<?xml version="1.0" encoding="UTF-8" standalone="no"?><!DOCTYPE svg PUBLIC "-//W3C//DTD SVG 1.1//EN" "http://www.w3.org/Graphics/SVG/1.1/DTD/svg11.dtd"><svg width="100%" height="100%" viewBox="0 0 138 138" version="1.1" xmlns="http://www.w3.org/2000/svg" xmlns:xlink="http://www.w3.org/1999/xlink" xml:space="preserve" xmlns:serif="http://www.serif.com/" style="fill-rule:evenodd;clip-rule:evenodd;stroke-linejoin:round;stroke-miterlimit:2;"><clipPath id="_clip1"><path d="M16.354,1.762l104.81,0c8.164,0 14.783,6.618 14.783,14.782l-0,104.811c-0,8.164 -6.619,14.782 -14.783,14.782l-104.81,0c-8.164,0 -14.782,-6.618 -14.782,-14.782l-0,-104.811c-0,-8.164 6.618,-14.782 14.782,-14.782Z" clip-rule="nonzero"/></clipPath><g clip-path="url(#_clip1)"><rect x="-14.053" y="-13.863" width="165.625" height="165.625" style="fill:#fedd00;"/></g><clipPath id="_clip2"><path d="M104.2,65.476l-0,19.533l-26.544,0l0,-19.533c-5.874,-3.865 -9.755,-10.117 -10.629,-17.014l-0.19,0l-0,-2.511l-8.554,-0l-3.372,-6.703l-31.199,-0l-0,65.625l86.25,-0l-0,-44.725c-1.599,2.055 -3.536,3.864 -5.762,5.328Zm-70.375,19.286l0,-5.023l20.047,-0l-0,5.023l-20.047,0Zm20.047,5.032l-0,5.024l-20.047,-0l0,-5.024l20.047,-0Z" clip-rule="nonzero"/></clipPath><g clip-path="url(#_clip2)"><rect x="8.087" y="23.623" width="117.5" height="96.875" style="fill:#fff;"/></g><rect x="82.155" y="76.196" width="16.875" height="5.625" style="fill:#fff;"/><clipPath id="_clip3"><path d="M80.799,63.146l1.247,0.732l0,6.741l5.606,-0l0,-13.306l-7.248,-7.381l3.52,-3.584l6.217,6.331l6.216,-6.331l3.52,3.584l-7.247,7.381l0,13.306l5.605,-0l0,-6.741l1.247,-0.732c5.804,-3.404 9.409,-9.748 9.409,-16.557c-0,-5.081 -1.938,-9.862 -5.455,-13.465c-3.516,-3.601 -8.197,-5.6 -13.182,-5.63c-0.037,-0 -0.075,-0 -0.112,-0c-4.959,-0 -9.643,1.977 -13.198,5.577c-3.581,3.626 -5.553,8.427 -5.553,13.518c0,6.809 3.605,13.153 9.408,16.557Z" clip-rule="nonzero"/></clipPath><g clip-path="url(#_clip3)"><rect x="55.766" y="11.869" width="68.75" height="74.375" style="fill:#fff;"/></g></svg>