<?xml version="1.0" encoding="UTF-8" standalone="no"?><!DOCTYPE svg PUBLIC "-//W3C//DTD SVG 1.1//EN" "http://www.w3.org/Graphics/SVG/1.1/DTD/svg11.dtd"><svg width="100%" height="100%" viewBox="0 0 138 138" version="1.1" xmlns="http://www.w3.org/2000/svg" xmlns:xlink="http://www.w3.org/1999/xlink" xml:space="preserve" xmlns:serif="http://www.serif.com/" style="fill-rule:evenodd;clip-rule:evenodd;stroke-linejoin:round;stroke-miterlimit:2;"><clipPath id="_clip1"><path d="M15.198,1.524l106.55,-0c7.684,-0 13.913,6.229 13.913,13.912l-0,106.55c-0,7.684 -6.229,13.913 -13.913,13.913l-106.55,-0c-7.683,-0 -13.912,-6.229 -13.912,-13.913l-0,-106.55c-0,-7.683 6.229,-13.912 13.912,-13.912Z" clip-rule="nonzero"/></clipPath><g clip-path="url(#_clip1)"><rect x="-14.339" y="-14.101" width="165.625" height="165.625" style="fill:#e21a1a;"/></g><clipPath id="_clip2"><path d="M112.87,77.5c-1.322,10.707 -5.822,20.551 -13.014,28.472c-0.005,0.004 -0.01,0.01 -0.015,0.016l-4.572,4.973c-0.693,0.754 -1.63,1.135 -2.569,1.135c-0.863,-0 -1.727,-0.322 -2.406,-0.97c-1.418,-1.355 -1.491,-3.624 -0.162,-5.07l4.565,-4.966c6.183,-6.812 10.052,-15.279 11.189,-24.485c0.243,-1.965 2.002,-3.358 3.931,-3.111c1.929,0.247 3.296,2.041 3.053,4.006Zm-13.684,-3.736l0.018,-33.646c-0,-0.036 -0.001,-0.072 -0.001,-0.107c-0.028,-0.947 0.303,-1.838 0.929,-2.508c0.634,-0.678 1.506,-1.066 2.456,-1.094c0.957,-0.028 1.859,0.31 2.541,0.953c0.659,0.623 1.042,1.472 1.079,2.395l0.004,19.431c-0,1.98 1.576,3.586 3.519,3.586l0.001,0c1.944,0 3.519,-1.606 3.519,-3.587l-0.004,-19.492c0,-0.035 -0,-0.07 -0.002,-0.105c-0.082,-2.879 -1.266,-5.539 -3.332,-7.49c-2.044,-1.93 -4.718,-2.946 -7.531,-2.862c-2.815,0.084 -5.424,1.261 -7.345,3.315c-1.921,2.054 -2.94,4.754 -2.873,7.61l-0.012,24.117c-3.849,-1.369 -8.307,-0.393 -11.255,2.853l-12.566,13.943l-12.783,-13.953c-2.943,-3.242 -7.405,-4.215 -11.257,-2.839l-0.012,-24.121c0.067,-2.87 -1.003,-5.588 -3.017,-7.66c-1.966,-2.022 -4.592,-3.182 -7.394,-3.265c-2.827,-0.085 -5.484,0.947 -7.487,2.904c-1.981,1.936 -3.118,4.582 -3.201,7.448c-0.001,0.035 -0.001,0.07 -0.001,0.106l-0.006,30.275c-0.288,13.509 4.406,26.293 13.221,36.001c0.005,0.005 0.01,0.01 0.014,0.016l4.573,4.973c0.693,0.754 1.63,1.135 2.569,1.135c0.862,0 1.727,-0.322 2.406,-0.97c1.418,-1.354 1.491,-3.624 0.162,-5.07l-4.565,-4.965c-7.572,-8.342 -11.599,-19.35 -11.341,-30.999c0,-0.027 0.001,-0.053 0.001,-0.08l0.005,-30.255c0.038,-0.956 0.404,-1.821 1.035,-2.436c0.445,-0.436 1.224,-0.95 2.409,-0.912c0.974,0.029 1.922,0.446 2.6,1.144c0.658,0.676 1.006,1.55 0.98,2.458c-0.002,0.036 -0.003,0.072 -0.003,0.108l0.018,33.82c-0.019,0.418 -0.013,0.837 0.016,1.254c0.002,0.03 0.004,0.061 0.007,0.091c0.179,2.328 1.095,4.614 2.769,6.457c0.006,0.007 0.012,0.013 0.017,0.019l12.029,13.062c1.331,1.445 3.558,1.516 4.976,0.161c1.417,-1.356 1.488,-3.626 0.157,-5.071l-12.019,-13.05c-0.548,-0.607 -0.848,-1.356 -0.912,-2.121l-0,-0.605c0.069,-0.863 0.44,-1.703 1.111,-2.336c1.425,-1.343 3.656,-1.255 4.984,0.208l17.988,19.635c1.473,1.622 2.238,3.731 2.155,5.939c-0.084,2.207 -1.007,4.25 -2.599,5.751l-2.696,2.543c-1.427,1.346 -1.512,3.615 -0.192,5.069c0.694,0.764 1.637,1.151 2.584,1.151c0.855,0 1.713,-0.316 2.39,-0.954l2.697,-2.544c6.133,-5.784 6.504,-15.577 0.818,-21.839l-0.388,-0.423l12.924,-14.339c1.318,-1.452 3.549,-1.54 4.974,-0.196c0.617,0.581 1,1.352 1.1,2.192l-0.001,0.872c-0.087,0.746 -0.397,1.442 -0.907,2.004c-0.014,0.017 -0.029,0.033 -0.044,0.05l-7.66,8.757c-1.293,1.479 -1.165,3.747 0.286,5.065c0.671,0.61 1.508,0.909 2.341,0.909c0.969,-0 1.934,-0.405 2.629,-1.2l7.639,-8.735c2.021,-2.241 2.928,-5.128 2.756,-7.951Zm-48.747,-27.312l-0,-13.628c-0,-2.748 1.504,-5.211 3.925,-6.426l10.734,-5.39c1.95,-0.979 4.279,-0.979 6.229,-0l10.735,5.39c2.421,1.215 3.925,3.678 3.925,6.426l0,13.628c0,2.747 -1.504,5.209 -3.925,6.426l-10.734,5.39c-0.975,0.49 -2.045,0.735 -3.115,0.735c-1.071,0 -2.14,-0.245 -3.116,-0.735l-10.733,-5.39c-2.421,-1.216 -3.925,-3.678 -3.925,-6.426Zm7.039,0l7.215,3.619l0,-10.05l-7.215,-3.515l-0,9.946Zm21.473,-0.009l-0.003,-9.932l-7.215,3.51l-0,10.044l7.218,-3.622Zm-17.147,-15.782l6.409,3.123l6.42,-3.123l-6.416,-3.217l-6.413,3.217Z" clip-rule="nonzero"/></clipPath><g clip-path="url(#_clip2)"><rect x="7.536" y="4.649" width="121.34" height="123.073" style="fill:#fff;"/></g></svg>