<?xml version="1.0" encoding="UTF-8"?>
<svg width="1204px" height="137px" viewBox="0 0 1204 137" version="1.1" xmlns="http://www.w3.org/2000/svg" xmlns:xlink="http://www.w3.org/1999/xlink">
    <title>NuuEDSCORE</title>
    <g id="Core-Screens" stroke="none" stroke-width="1" fill="none" fill-rule="evenodd">
        <g id="NuuEDScore_LandingPage" transform="translate(-358.000000, -302.000000)" fill-rule="nonzero">
            <g id="4GaugeLogo_New_WEBSITE" transform="translate(358.140000, 302.000000)">
                <g id="NuuEDSCORE" transform="translate(0.000000, -0.000000)">
                    <g transform="translate(0.272010, 0.729740)">
                        <path d="M16.2509851,132.749011 L16.2509851,28.5860702 L92.4152407,132.749011 L108.078841,132.749011 L108.078841,2.15374502 L91.8278557,2.15374502 L91.8278557,104.162941 L16.6425751,2.15374502 L-3.95061761e-12,2.15374502 L-3.95061761e-12,132.749011 L16.2509851,132.749011 Z M167.423983,135.098551 C181.521223,135.098551 193.856308,127.658341 201.100723,119.434951 L201.100723,132.749011 L215.785348,132.749011 L215.785348,38.1800253 L201.100723,38.1800253 L201.100723,107.687251 C195.618463,115.323256 184.653943,121.980286 173.297833,121.980286 C160.375363,121.980286 151.956178,117.085411 151.956178,100.442836 L151.956178,38.1800253 L137.271553,38.1800253 L137.271553,104.946121 C137.271553,125.308801 147.648688,135.098551 167.423983,135.098551 Z M274.543105,135.098551 C288.640345,135.098551 300.97543,127.658341 308.219845,119.434951 L308.219845,132.749011 L322.90447,132.749011 L322.90447,38.1800253 L308.219845,38.1800253 L308.219845,107.687251 C302.737585,115.323256 291.773065,121.980286 280.416955,121.980286 C267.494485,121.980286 259.0753,117.085411 259.0753,100.442836 L259.0753,38.1800253 L244.390675,38.1800253 L244.390675,104.946121 C244.390675,125.308801 254.76781,135.098551 274.543105,135.098551 Z" id="Nuu" fill="#46BC61"></path>
                        <path d="M440.204933,132.749011 L440.204933,112.582126 L373.634632,112.582126 L373.634632,76.1642556 L438.834368,76.1642556 L438.834368,55.9973704 L373.634632,55.9973704 L373.634632,22.3206302 L440.204933,22.3206302 L440.204933,2.15374502 L350.726617,2.15374502 L350.726617,132.749011 L440.204933,132.749011 Z M511.689365,132.749011 C552.414725,132.749011 579.826025,105.925096 579.826025,67.3534805 C579.826025,29.1734552 552.414725,2.15374502 511.49357,2.15374502 L462.936409,2.15374502 L462.936409,132.749011 L511.689365,132.749011 Z M511.49357,112.582126 L485.844425,112.582126 L485.844425,22.3206302 L511.689365,22.3206302 C540.667025,22.3206302 556.330625,42.2917203 556.330625,67.3534805 C556.330625,92.2194457 539.883845,112.582126 511.49357,112.582126 Z" id="ED" fill="#0074B9"></path>
                        <path d="M644.849222,135.098551 C680.092322,135.098551 693.014793,115.519051 693.014793,96.7227307 C693.014793,47.9697754 615.675767,64.8081455 615.675767,35.4388953 C615.675767,23.1038102 627.031877,14.6846251 642.499682,14.6846251 C656.792717,14.6846251 670.498367,19.3837051 680.288117,30.3482252 L690.077868,18.4047301 C679.113347,6.85282505 663.645542,6.53699317e-13 643.870247,6.53699317e-13 C618.025307,6.53699317e-13 598.837397,14.8804201 598.837397,36.4178703 C598.837397,83.0170806 676.176422,64.2207605 676.176422,97.8975008 C676.176422,108.078841 668.736212,120.609721 645.436607,120.609721 C627.031877,120.609721 612.934637,111.603151 604.515452,101.813401 L594.725702,114.344281 C605.494427,126.483571 622.332797,135.098551 644.849222,135.098551 Z M778.40067,135.098551 C801.50448,135.098551 817.16808,124.134031 828.1326,109.057816 L814.42695,101.617606 C806.98674,112.582126 793.28109,120.609721 778.40067,120.609721 C749.814599,120.609721 728.081354,98.4848858 728.081354,67.5492755 C728.081354,36.2220753 749.814599,14.4888301 778.40067,14.4888301 C793.28109,14.4888301 806.98674,22.3206302 814.42695,33.4809453 L827.936805,25.8449402 C817.55967,10.9645201 801.50448,6.53699317e-13 778.40067,6.53699317e-13 C740.808029,6.53699317e-13 711.242984,27.4113002 711.242984,67.5492755 C711.242984,107.687251 740.808029,135.098551 778.40067,135.098551 Z M907.644627,135.098551 C946.216242,135.098551 972.648568,106.120891 972.648568,67.5492755 C972.648568,28.9776602 946.216242,6.53699317e-13 907.644627,6.53699317e-13 C869.073012,6.53699317e-13 842.836482,28.9776602 842.836482,67.5492755 C842.836482,106.120891 869.073012,135.098551 907.644627,135.098551 Z M907.644627,120.609721 C878.275377,120.609721 859.674852,97.8975008 859.674852,67.5492755 C859.674852,37.0052553 878.275377,14.4888301 907.644627,14.4888301 C936.818082,14.4888301 955.810198,37.0052553 955.810198,67.5492755 C955.810198,97.8975008 936.818082,120.609721 907.644627,120.609721 Z M1013.39318,132.749011 L1013.39318,80.8633356 L1039.62971,80.8633356 L1072.71907,132.749011 L1091.90698,132.749011 L1056.66388,79.4927706 C1074.48122,77.9264106 1090.73221,65.0039405 1090.73221,41.5085403 C1090.73221,17.4257551 1073.50225,2.15374502 1049.61526,2.15374502 L997.142199,2.15374502 L997.142199,132.749011 L1013.39318,132.749011 Z M1047.65731,66.5703005 L1013.39318,66.5703005 L1013.39318,16.6425751 L1047.65731,16.6425751 C1063.12511,16.6425751 1073.89384,26.6281202 1073.89384,41.5085403 C1073.89384,56.1931654 1063.12511,66.5703005 1047.65731,66.5703005 Z M1201.17985,132.749011 L1201.17985,118.260181 L1131.86842,118.260181 L1131.86842,73.2273306 L1199.80928,73.2273306 L1199.80928,58.7385005 L1131.86842,58.7385005 L1131.86842,16.6425751 L1201.17985,16.6425751 L1201.17985,2.15374502 L1115.61743,2.15374502 L1115.61743,132.749011 L1201.17985,132.749011 Z" id="SCORE" fill="#46BC61"></path>
                    </g>
                </g>
            </g>
        </g>
    </g>
</svg>