<?xml version="1.0" encoding="UTF-8"?>
<svg width="132px" height="73px" viewBox="0 0 132 73" version="1.1" xmlns="http://www.w3.org/2000/svg" xmlns:xlink="http://www.w3.org/1999/xlink">
    <title>Logo</title>
    <g id="Core-Screens" stroke="none" stroke-width="1" fill="none" fill-rule="evenodd">
        <g id="NuuEDScore_LandingPage" transform="translate(-53.000000, -24.000000)" fill-rule="nonzero">
            <g id="NUUED-BAR" transform="translate(53.440000, 17.100000)">
                <g id="NuLogo_Small" transform="translate(0.498905, 6.997810)">
                    <g id="Logo" transform="translate(0.592505, 0.441676)">
                        <path d="M5.21794276,28.2147129 L5.21794276,5.71062405 L21.6730002,28.2147129 L25.0570737,28.2147129 L25.0570737,1.16529009e-12 L21.5460975,1.16529009e-12 L21.5460975,22.0387787 L5.3025446,1.16529009e-12 L1.70696649,1.16529009e-12 L1.70696649,28.2147129 L5.21794276,28.2147129 Z M38.3427989,28.7223239 C41.3884651,28.7223239 44.053423,27.114889 45.618557,25.3382504 L45.618557,28.2147129 L48.7911259,28.2147129 L48.7911259,7.78336908 L45.618557,7.78336908 L45.618557,22.8001953 C44.4341312,24.4499311 42.0652798,25.8881624 39.6118265,25.8881624 C36.8199658,25.8881624 35.0010263,24.8306394 35.0010263,21.2350613 L35.0010263,7.78336908 L31.8284574,7.78336908 L31.8284574,22.2079824 C31.8284574,26.607278 34.0704061,28.7223239 38.3427989,28.7223239 Z M61.9499483,28.7223239 C64.9956144,28.7223239 67.6605723,27.114889 69.2257063,25.3382504 L69.2257063,28.2147129 L72.3982753,28.2147129 L72.3982753,7.78336908 L69.2257063,7.78336908 L69.2257063,22.8001953 C68.0412806,24.4499311 65.6724292,25.8881624 63.2189759,25.8881624 C60.4271152,25.8881624 58.6081757,24.8306394 58.6081757,21.2350613 L58.6081757,7.78336908 L55.4356068,7.78336908 L55.4356068,22.2079824 C55.4356068,26.607278 57.6775555,28.7223239 61.9499483,28.7223239 Z" id="Nuu" fill="#46BC61"></path>
                        <path d="M98.2050724,28.2147129 L98.2050724,23.8577183 L83.82276,23.8577183 L83.82276,15.9897473 L97.908966,15.9897473 L97.908966,11.6327527 L83.82276,11.6327527 L83.82276,4.35699465 L98.2050724,4.35699465 L98.2050724,4.86721774e-13 L78.8735525,4.86721774e-13 L78.8735525,28.2147129 L98.2050724,28.2147129 Z M114.113455,28.2147129 C122.912046,28.2147129 128.834174,22.419487 128.834174,14.086206 C128.834174,5.83752681 122.912046,4.86721774e-13 114.071154,4.86721774e-13 L103.580526,4.86721774e-13 L103.580526,28.2147129 L114.113455,28.2147129 Z M114.071154,23.8577183 L108.529733,23.8577183 L108.529733,4.35699465 L114.113455,4.35699465 C120.373991,4.35699465 123.758064,8.67168837 123.758064,14.086206 C123.758064,19.4584227 120.204787,23.8577183 114.071154,23.8577183 Z" id="ED" fill="#0074B9"></path>
                        <path d="M10.728456,70.6256404 C18.2719016,70.6256404 21.0378316,66.4348373 21.0378316,62.4116663 C21.0378316,51.9765665 4.48415933,55.5806572 4.48415933,49.2944525 C4.48415933,46.6542466 6.91482513,44.8522013 10.2255596,44.8522013 C13.2848459,44.8522013 16.218408,45.857994 18.3138096,48.2048437 L20.4092111,45.6484538 C18.0623614,43.17588 14.7516269,41.7090989 10.5189158,41.7090989 C4.9870557,41.7090989 0.880068653,44.8941093 0.880068653,49.5039927 C0.880068653,59.4781041 17.4337409,55.4549331 17.4337409,62.6631145 C17.4337409,64.8423321 15.8412358,67.5244461 10.8541801,67.5244461 C6.91482513,67.5244461 3.89744689,65.5966766 2.09540156,63.5012751 L4.32009983e-12,66.1833891 C2.30494171,68.781687 5.90903239,70.6256404 10.728456,70.6256404 Z M38.379774,70.6256404 C43.3249217,70.6256404 46.6775642,68.2787906 49.0244139,65.0518722 L46.0908517,63.4593671 C44.4983466,65.8062168 41.5647844,67.5244461 38.379774,67.5244461 C32.2612015,67.5244461 27.60941,62.7888386 27.60941,56.1673697 C27.60941,49.4620847 32.2612015,44.8102932 38.379774,44.8102932 C41.5647844,44.8102932 44.4983466,46.4866145 46.0908517,48.8753722 L48.9825059,47.240959 C46.7613802,44.0559487 43.3249217,41.7090989 38.379774,41.7090989 C30.333432,41.7090989 24.0053193,47.5762233 24.0053193,56.1673697 C24.0053193,64.758516 30.333432,70.6256404 38.379774,70.6256404 Z M65.1091154,70.6256404 C73.3649975,70.6256404 79.0225817,64.4232518 79.0225817,56.1673697 C79.0225817,47.9114875 73.3649975,41.7090989 65.1091154,41.7090989 C56.8532333,41.7090989 51.2375571,47.9114875 51.2375571,56.1673697 C51.2375571,64.4232518 56.8532333,70.6256404 65.1091154,70.6256404 Z M65.1091154,67.5244461 C58.8229107,67.5244461 54.8416478,62.6631145 54.8416478,56.1673697 C54.8416478,49.6297168 58.8229107,44.8102932 65.1091154,44.8102932 C71.353412,44.8102932 75.418491,49.6297168 75.418491,56.1673697 C75.418491,62.6631145 71.353412,67.5244461 65.1091154,67.5244461 Z M86.809493,70.122744 L86.809493,59.0171158 L92.4251692,59.0171158 L99.5076265,70.122744 L103.614614,70.122744 L96.0711679,58.7237595 C99.8847987,58.3884953 103.363165,55.6225652 103.363165,50.5936015 C103.363165,45.4389137 99.6752586,42.1700873 94.5624788,42.1700873 L83.3311264,42.1700873 L83.3311264,70.122744 L86.809493,70.122744 Z M94.1433985,55.9578295 L86.809493,55.9578295 L86.809493,45.2712816 L94.1433985,45.2712816 C97.4541329,45.2712816 99.7590746,47.4085911 99.7590746,50.5936015 C99.7590746,53.7367038 97.4541329,55.9578295 94.1433985,55.9578295 Z M126.069336,70.122744 L126.069336,67.0215497 L111.233893,67.0215497 L111.233893,57.3827026 L125.775979,57.3827026 L125.775979,54.2815083 L111.233893,54.2815083 L111.233893,45.2712816 L126.069336,45.2712816 L126.069336,42.1700873 L107.755526,42.1700873 L107.755526,70.122744 L126.069336,70.122744 Z" id="SCORE" fill="#46BC61"></path>
                    </g>
                </g>
            </g>
        </g>
    </g>
</svg>