<?xml version="1.0" encoding="UTF-8" standalone="no"?><!DOCTYPE svg PUBLIC "-//W3C//DTD SVG 1.1//EN" "http://www.w3.org/Graphics/SVG/1.1/DTD/svg11.dtd"><svg width="100%" height="100%" viewBox="0 0 858 583" version="1.1" xmlns="http://www.w3.org/2000/svg" xmlns:xlink="http://www.w3.org/1999/xlink" xml:space="preserve" xmlns:serif="http://www.serif.com/" style="fill-rule:evenodd;clip-rule:evenodd;stroke-linejoin:round;stroke-miterlimit:2;"><clipPath id="_clip1"><path d="M428.593,94.218c-172.921,-0 -308.125,164.467 -313.798,171.467l-20.577,25.408l20.577,25.407c5.67,7 140.874,171.468 313.798,171.468c172.923,-0 308.124,-164.468 313.797,-171.468l20.578,-25.407l-20.578,-25.408c-5.67,-7 -140.874,-171.467 -313.797,-171.467Zm42.187,93.75c42.288,-0 76.563,34.278 76.563,76.565c-0,42.281 -34.28,76.56 -76.563,76.56c-42.282,-0 -76.562,-34.279 -76.562,-76.56c-0,-42.287 34.28,-76.565 76.562,-76.565Zm-37.5,218.75c-101.28,-0 -191.675,-79.319 -232.812,-121.794c17.617,-18.254 44.3,-43.267 77.049,-65.871c0.577,90.308 69.172,163.591 153.431,163.591c84.617,0 153.453,-73.899 153.453,-164.733c0,-0.607 -0.025,-1.214 -0.031,-1.818c34.844,23.405 63.257,49.883 81.723,68.949c-41.017,42.507 -131.088,121.676 -232.813,121.676Z" clip-rule="nonzero"/></clipPath><g clip-path="url(#_clip1)"><rect x="78.593" y="78.593" width="700" height="425" style="fill:#fff;"/></g><path d="M428.593,94.218c-172.921,-0 -308.125,164.467 -313.798,171.467l-20.577,25.408l20.577,25.407c5.67,7 140.874,171.468 313.798,171.468c172.923,-0 308.124,-164.468 313.797,-171.468l20.578,-25.407l-20.578,-25.408c-5.67,-7 -140.874,-171.467 -313.797,-171.467Zm42.187,93.75c42.288,-0 76.563,34.278 76.563,76.565c-0,42.281 -34.28,76.56 -76.563,76.56c-42.282,-0 -76.562,-34.279 -76.562,-76.56c-0,-42.287 34.28,-76.565 76.562,-76.565Zm-37.5,218.75c-101.28,-0 -191.675,-79.319 -232.812,-121.794c17.617,-18.254 44.3,-43.267 77.049,-65.871c0.577,90.308 69.172,163.591 153.431,163.591c84.617,0 153.453,-73.899 153.453,-164.733c0,-0.607 -0.025,-1.214 -0.031,-1.818c34.844,23.405 63.257,49.883 81.723,68.949c-41.017,42.507 -131.088,121.676 -232.813,121.676Z" style="fill:#fff;fill-rule:nonzero;"/></svg>